G04 EAGLE Gerber RS-274X export*
G75*
%MOMM*%
%FSLAX34Y34*%
%LPD*%
%INBottom Copper*%
%IPPOS*%
%AMOC8*
5,1,8,0,0,1.08239X$1,22.5*%
G01*
%ADD10P,1.649562X8X112.500000*%
%ADD11C,2.250000*%
%ADD12P,2.336880X8X22.500000*%
%ADD13P,1.484606X8X202.500000*%
%ADD14C,1.524000*%
%ADD15P,1.649562X8X292.500000*%
%ADD16P,2.336880X8X202.500000*%
%ADD17P,1.319650X8X112.500000*%
%ADD18C,1.219200*%
%ADD19P,3.010451X8X112.500000*%
%ADD20C,0.600000*%
%ADD21C,0.508000*%
%ADD22C,0.304800*%
%ADD23C,0.254000*%
%ADD24C,0.203200*%
%ADD25C,0.406400*%

G36*
X512058Y10993D02*
X512058Y10993D01*
X512116Y10991D01*
X512198Y11013D01*
X512282Y11025D01*
X512335Y11049D01*
X512391Y11063D01*
X512464Y11106D01*
X512541Y11141D01*
X512586Y11179D01*
X512636Y11209D01*
X512694Y11270D01*
X512758Y11325D01*
X512790Y11373D01*
X512830Y11416D01*
X512869Y11491D01*
X512916Y11561D01*
X512933Y11617D01*
X512960Y11669D01*
X512971Y11737D01*
X513001Y11832D01*
X513004Y11932D01*
X513015Y12000D01*
X513015Y144985D01*
X616985Y144985D01*
X616985Y12000D01*
X616993Y11942D01*
X616991Y11884D01*
X617013Y11802D01*
X617025Y11719D01*
X617049Y11665D01*
X617063Y11609D01*
X617106Y11536D01*
X617141Y11459D01*
X617179Y11414D01*
X617209Y11364D01*
X617270Y11306D01*
X617325Y11242D01*
X617373Y11210D01*
X617416Y11170D01*
X617491Y11131D01*
X617561Y11085D01*
X617617Y11067D01*
X617669Y11040D01*
X617737Y11029D01*
X617832Y10999D01*
X617932Y10996D01*
X618000Y10985D01*
X1216000Y10985D01*
X1216087Y10997D01*
X1216174Y11000D01*
X1216227Y11017D01*
X1216282Y11025D01*
X1216361Y11060D01*
X1216445Y11087D01*
X1216484Y11115D01*
X1216541Y11141D01*
X1216654Y11237D01*
X1216718Y11282D01*
X1222718Y17282D01*
X1222770Y17352D01*
X1222830Y17416D01*
X1222856Y17465D01*
X1222889Y17509D01*
X1222920Y17591D01*
X1222960Y17669D01*
X1222968Y17717D01*
X1222990Y17775D01*
X1223002Y17923D01*
X1223015Y18000D01*
X1223015Y778000D01*
X1223003Y778087D01*
X1223000Y778174D01*
X1222983Y778227D01*
X1222975Y778282D01*
X1222940Y778361D01*
X1222913Y778445D01*
X1222885Y778484D01*
X1222859Y778541D01*
X1222763Y778654D01*
X1222718Y778718D01*
X1208718Y792718D01*
X1208648Y792770D01*
X1208584Y792830D01*
X1208535Y792856D01*
X1208491Y792889D01*
X1208409Y792920D01*
X1208331Y792960D01*
X1208284Y792968D01*
X1208225Y792990D01*
X1208077Y793002D01*
X1208000Y793015D01*
X1179923Y793015D01*
X1179809Y792999D01*
X1179695Y792989D01*
X1179669Y792979D01*
X1179642Y792975D01*
X1179537Y792928D01*
X1179430Y792887D01*
X1179408Y792871D01*
X1179382Y792859D01*
X1179295Y792785D01*
X1179203Y792716D01*
X1179187Y792693D01*
X1179165Y792676D01*
X1179102Y792580D01*
X1179033Y792488D01*
X1179023Y792462D01*
X1179008Y792439D01*
X1178973Y792329D01*
X1178933Y792222D01*
X1178930Y792194D01*
X1178922Y792168D01*
X1178919Y792053D01*
X1178910Y791939D01*
X1178915Y791914D01*
X1178915Y791884D01*
X1178982Y791627D01*
X1178985Y791611D01*
X1179601Y790126D01*
X1179601Y784834D01*
X1177576Y779946D01*
X1173834Y776204D01*
X1168946Y774179D01*
X1163654Y774179D01*
X1158766Y776204D01*
X1155024Y779946D01*
X1152999Y784834D01*
X1152999Y790126D01*
X1153615Y791611D01*
X1153643Y791723D01*
X1153678Y791832D01*
X1153679Y791860D01*
X1153686Y791887D01*
X1153682Y792001D01*
X1153685Y792116D01*
X1153678Y792143D01*
X1153677Y792171D01*
X1153642Y792280D01*
X1153613Y792391D01*
X1153599Y792415D01*
X1153591Y792442D01*
X1153527Y792537D01*
X1153468Y792636D01*
X1153448Y792655D01*
X1153433Y792678D01*
X1153345Y792752D01*
X1153261Y792830D01*
X1153236Y792843D01*
X1153215Y792861D01*
X1153110Y792908D01*
X1153008Y792960D01*
X1152983Y792964D01*
X1152955Y792976D01*
X1152692Y793013D01*
X1152677Y793015D01*
X1106923Y793015D01*
X1106809Y792999D01*
X1106695Y792989D01*
X1106669Y792979D01*
X1106642Y792975D01*
X1106537Y792928D01*
X1106430Y792887D01*
X1106408Y792871D01*
X1106382Y792859D01*
X1106295Y792785D01*
X1106203Y792716D01*
X1106187Y792693D01*
X1106165Y792676D01*
X1106102Y792580D01*
X1106033Y792488D01*
X1106023Y792462D01*
X1106008Y792439D01*
X1105973Y792329D01*
X1105933Y792222D01*
X1105930Y792194D01*
X1105922Y792168D01*
X1105919Y792053D01*
X1105910Y791939D01*
X1105915Y791914D01*
X1105915Y791884D01*
X1105982Y791627D01*
X1105985Y791611D01*
X1106601Y790126D01*
X1106601Y784834D01*
X1104576Y779946D01*
X1100834Y776204D01*
X1095946Y774179D01*
X1090654Y774179D01*
X1085766Y776204D01*
X1082024Y779946D01*
X1079999Y784834D01*
X1079999Y790126D01*
X1080615Y791611D01*
X1080643Y791723D01*
X1080678Y791832D01*
X1080679Y791860D01*
X1080686Y791887D01*
X1080682Y792001D01*
X1080685Y792116D01*
X1080678Y792143D01*
X1080677Y792171D01*
X1080642Y792280D01*
X1080613Y792391D01*
X1080599Y792415D01*
X1080591Y792442D01*
X1080527Y792537D01*
X1080468Y792636D01*
X1080448Y792655D01*
X1080433Y792678D01*
X1080345Y792752D01*
X1080261Y792830D01*
X1080236Y792843D01*
X1080215Y792861D01*
X1080110Y792908D01*
X1080008Y792960D01*
X1079983Y792964D01*
X1079955Y792976D01*
X1079692Y793013D01*
X1079677Y793015D01*
X834000Y793015D01*
X833942Y793007D01*
X833884Y793009D01*
X833802Y792987D01*
X833719Y792975D01*
X833665Y792952D01*
X833609Y792937D01*
X833536Y792894D01*
X833459Y792859D01*
X833414Y792821D01*
X833364Y792792D01*
X833306Y792730D01*
X833242Y792676D01*
X833210Y792627D01*
X833170Y792584D01*
X833131Y792509D01*
X833085Y792439D01*
X833067Y792383D01*
X833040Y792331D01*
X833029Y792263D01*
X832999Y792168D01*
X832996Y792068D01*
X832985Y792000D01*
X832985Y612421D01*
X773580Y553015D01*
X40000Y553015D01*
X39913Y553003D01*
X39826Y553000D01*
X39773Y552983D01*
X39719Y552975D01*
X39639Y552940D01*
X39555Y552913D01*
X39516Y552885D01*
X39459Y552859D01*
X39346Y552763D01*
X39282Y552718D01*
X23282Y536718D01*
X23229Y536647D01*
X23167Y536581D01*
X23143Y536533D01*
X23111Y536491D01*
X23079Y536407D01*
X23039Y536327D01*
X23031Y536281D01*
X23010Y536225D01*
X22997Y536073D01*
X22985Y535996D01*
X24985Y25996D01*
X24997Y25911D01*
X25000Y25826D01*
X25017Y25772D01*
X25026Y25715D01*
X25061Y25637D01*
X25087Y25555D01*
X25116Y25515D01*
X25143Y25456D01*
X25237Y25346D01*
X25282Y25282D01*
X39282Y11282D01*
X39352Y11230D01*
X39416Y11170D01*
X39465Y11144D01*
X39509Y11111D01*
X39591Y11080D01*
X39669Y11040D01*
X39717Y11032D01*
X39775Y11010D01*
X39923Y10998D01*
X40000Y10985D01*
X512000Y10985D01*
X512058Y10993D01*
G37*
G36*
X660058Y612993D02*
X660058Y612993D01*
X660116Y612991D01*
X660198Y613013D01*
X660282Y613025D01*
X660335Y613049D01*
X660391Y613063D01*
X660464Y613106D01*
X660541Y613141D01*
X660586Y613179D01*
X660636Y613209D01*
X660694Y613270D01*
X660758Y613325D01*
X660790Y613373D01*
X660830Y613416D01*
X660869Y613491D01*
X660916Y613561D01*
X660933Y613617D01*
X660960Y613669D01*
X660971Y613737D01*
X661001Y613832D01*
X661004Y613932D01*
X661015Y614000D01*
X661015Y796000D01*
X661007Y796058D01*
X661009Y796116D01*
X660987Y796198D01*
X660975Y796282D01*
X660952Y796335D01*
X660937Y796391D01*
X660894Y796464D01*
X660859Y796541D01*
X660821Y796586D01*
X660792Y796636D01*
X660730Y796694D01*
X660676Y796758D01*
X660627Y796790D01*
X660584Y796830D01*
X660509Y796869D01*
X660439Y796916D01*
X660383Y796933D01*
X660331Y796960D01*
X660263Y796971D01*
X660168Y797001D01*
X660068Y797004D01*
X660000Y797015D01*
X578000Y797015D01*
X577942Y797007D01*
X577884Y797009D01*
X577802Y796987D01*
X577719Y796975D01*
X577665Y796952D01*
X577609Y796937D01*
X577536Y796894D01*
X577459Y796859D01*
X577414Y796821D01*
X577364Y796792D01*
X577306Y796730D01*
X577242Y796676D01*
X577210Y796627D01*
X577170Y796584D01*
X577131Y796509D01*
X577085Y796439D01*
X577067Y796383D01*
X577040Y796331D01*
X577029Y796263D01*
X576999Y796168D01*
X576996Y796068D01*
X576985Y796000D01*
X576985Y614000D01*
X576993Y613942D01*
X576991Y613884D01*
X577013Y613802D01*
X577025Y613719D01*
X577049Y613665D01*
X577063Y613609D01*
X577106Y613536D01*
X577141Y613459D01*
X577179Y613414D01*
X577209Y613364D01*
X577270Y613306D01*
X577325Y613242D01*
X577373Y613210D01*
X577416Y613170D01*
X577491Y613131D01*
X577561Y613085D01*
X577617Y613067D01*
X577669Y613040D01*
X577737Y613029D01*
X577832Y612999D01*
X577932Y612996D01*
X578000Y612985D01*
X660000Y612985D01*
X660058Y612993D01*
G37*
G36*
X786058Y612993D02*
X786058Y612993D01*
X786116Y612991D01*
X786198Y613013D01*
X786282Y613025D01*
X786335Y613049D01*
X786391Y613063D01*
X786464Y613106D01*
X786541Y613141D01*
X786586Y613179D01*
X786636Y613209D01*
X786694Y613270D01*
X786758Y613325D01*
X786790Y613373D01*
X786830Y613416D01*
X786869Y613491D01*
X786916Y613561D01*
X786933Y613617D01*
X786960Y613669D01*
X786971Y613737D01*
X787001Y613832D01*
X787004Y613932D01*
X787015Y614000D01*
X787015Y796000D01*
X787007Y796058D01*
X787009Y796116D01*
X786987Y796198D01*
X786975Y796282D01*
X786952Y796335D01*
X786937Y796391D01*
X786894Y796464D01*
X786859Y796541D01*
X786821Y796586D01*
X786792Y796636D01*
X786730Y796694D01*
X786676Y796758D01*
X786627Y796790D01*
X786584Y796830D01*
X786509Y796869D01*
X786439Y796916D01*
X786383Y796933D01*
X786331Y796960D01*
X786263Y796971D01*
X786168Y797001D01*
X786068Y797004D01*
X786000Y797015D01*
X704000Y797015D01*
X703942Y797007D01*
X703884Y797009D01*
X703802Y796987D01*
X703719Y796975D01*
X703665Y796952D01*
X703609Y796937D01*
X703536Y796894D01*
X703459Y796859D01*
X703414Y796821D01*
X703364Y796792D01*
X703306Y796730D01*
X703242Y796676D01*
X703210Y796627D01*
X703170Y796584D01*
X703131Y796509D01*
X703085Y796439D01*
X703067Y796383D01*
X703040Y796331D01*
X703029Y796263D01*
X702999Y796168D01*
X702996Y796068D01*
X702985Y796000D01*
X702985Y614000D01*
X702993Y613942D01*
X702991Y613884D01*
X703013Y613802D01*
X703025Y613719D01*
X703049Y613665D01*
X703063Y613609D01*
X703106Y613536D01*
X703141Y613459D01*
X703179Y613414D01*
X703209Y613364D01*
X703270Y613306D01*
X703325Y613242D01*
X703373Y613210D01*
X703416Y613170D01*
X703491Y613131D01*
X703561Y613085D01*
X703617Y613067D01*
X703669Y613040D01*
X703737Y613029D01*
X703832Y612999D01*
X703932Y612996D01*
X704000Y612985D01*
X786000Y612985D01*
X786058Y612993D01*
G37*
G36*
X410058Y612993D02*
X410058Y612993D01*
X410116Y612991D01*
X410198Y613013D01*
X410282Y613025D01*
X410335Y613049D01*
X410391Y613063D01*
X410464Y613106D01*
X410541Y613141D01*
X410586Y613179D01*
X410636Y613209D01*
X410694Y613270D01*
X410758Y613325D01*
X410790Y613373D01*
X410830Y613416D01*
X410869Y613491D01*
X410916Y613561D01*
X410933Y613617D01*
X410960Y613669D01*
X410971Y613737D01*
X411001Y613832D01*
X411004Y613932D01*
X411015Y614000D01*
X411015Y796000D01*
X411007Y796058D01*
X411009Y796116D01*
X410987Y796198D01*
X410975Y796282D01*
X410952Y796335D01*
X410937Y796391D01*
X410894Y796464D01*
X410859Y796541D01*
X410821Y796586D01*
X410792Y796636D01*
X410730Y796694D01*
X410676Y796758D01*
X410627Y796790D01*
X410584Y796830D01*
X410509Y796869D01*
X410439Y796916D01*
X410383Y796933D01*
X410331Y796960D01*
X410263Y796971D01*
X410168Y797001D01*
X410068Y797004D01*
X410000Y797015D01*
X330000Y797015D01*
X329942Y797007D01*
X329884Y797009D01*
X329802Y796987D01*
X329719Y796975D01*
X329665Y796952D01*
X329609Y796937D01*
X329536Y796894D01*
X329459Y796859D01*
X329414Y796821D01*
X329364Y796792D01*
X329306Y796730D01*
X329242Y796676D01*
X329210Y796627D01*
X329170Y796584D01*
X329131Y796509D01*
X329085Y796439D01*
X329067Y796383D01*
X329040Y796331D01*
X329029Y796263D01*
X328999Y796168D01*
X328996Y796068D01*
X328985Y796000D01*
X328985Y614000D01*
X328993Y613942D01*
X328991Y613884D01*
X329013Y613802D01*
X329025Y613719D01*
X329049Y613665D01*
X329063Y613609D01*
X329106Y613536D01*
X329141Y613459D01*
X329179Y613414D01*
X329209Y613364D01*
X329270Y613306D01*
X329325Y613242D01*
X329373Y613210D01*
X329416Y613170D01*
X329491Y613131D01*
X329561Y613085D01*
X329617Y613067D01*
X329669Y613040D01*
X329737Y613029D01*
X329832Y612999D01*
X329932Y612996D01*
X330000Y612985D01*
X410000Y612985D01*
X410058Y612993D01*
G37*
G36*
X158058Y612993D02*
X158058Y612993D01*
X158116Y612991D01*
X158198Y613013D01*
X158282Y613025D01*
X158335Y613049D01*
X158391Y613063D01*
X158464Y613106D01*
X158541Y613141D01*
X158586Y613179D01*
X158636Y613209D01*
X158694Y613270D01*
X158758Y613325D01*
X158790Y613373D01*
X158830Y613416D01*
X158869Y613491D01*
X158916Y613561D01*
X158933Y613617D01*
X158960Y613669D01*
X158971Y613737D01*
X159001Y613832D01*
X159004Y613932D01*
X159015Y614000D01*
X159015Y796000D01*
X159007Y796058D01*
X159009Y796116D01*
X158987Y796198D01*
X158975Y796282D01*
X158952Y796335D01*
X158937Y796391D01*
X158894Y796464D01*
X158859Y796541D01*
X158821Y796586D01*
X158792Y796636D01*
X158730Y796694D01*
X158676Y796758D01*
X158627Y796790D01*
X158584Y796830D01*
X158509Y796869D01*
X158439Y796916D01*
X158383Y796933D01*
X158331Y796960D01*
X158263Y796971D01*
X158168Y797001D01*
X158068Y797004D01*
X158000Y797015D01*
X78000Y797015D01*
X77942Y797007D01*
X77884Y797009D01*
X77802Y796987D01*
X77719Y796975D01*
X77665Y796952D01*
X77609Y796937D01*
X77536Y796894D01*
X77459Y796859D01*
X77414Y796821D01*
X77364Y796792D01*
X77306Y796730D01*
X77242Y796676D01*
X77210Y796627D01*
X77170Y796584D01*
X77131Y796509D01*
X77085Y796439D01*
X77067Y796383D01*
X77040Y796331D01*
X77029Y796263D01*
X76999Y796168D01*
X76996Y796068D01*
X76985Y796000D01*
X76985Y614000D01*
X76993Y613942D01*
X76991Y613884D01*
X77013Y613802D01*
X77025Y613719D01*
X77049Y613665D01*
X77063Y613609D01*
X77106Y613536D01*
X77141Y613459D01*
X77179Y613414D01*
X77209Y613364D01*
X77270Y613306D01*
X77325Y613242D01*
X77373Y613210D01*
X77416Y613170D01*
X77491Y613131D01*
X77561Y613085D01*
X77617Y613067D01*
X77669Y613040D01*
X77737Y613029D01*
X77832Y612999D01*
X77932Y612996D01*
X78000Y612985D01*
X158000Y612985D01*
X158058Y612993D01*
G37*
G36*
X534058Y612993D02*
X534058Y612993D01*
X534116Y612991D01*
X534198Y613013D01*
X534282Y613025D01*
X534335Y613049D01*
X534391Y613063D01*
X534464Y613106D01*
X534541Y613141D01*
X534586Y613179D01*
X534636Y613209D01*
X534694Y613270D01*
X534758Y613325D01*
X534790Y613373D01*
X534830Y613416D01*
X534869Y613491D01*
X534916Y613561D01*
X534933Y613617D01*
X534960Y613669D01*
X534971Y613737D01*
X535001Y613832D01*
X535004Y613932D01*
X535015Y614000D01*
X535015Y796000D01*
X535007Y796058D01*
X535009Y796116D01*
X534987Y796198D01*
X534975Y796282D01*
X534952Y796335D01*
X534937Y796391D01*
X534894Y796464D01*
X534859Y796541D01*
X534821Y796586D01*
X534792Y796636D01*
X534730Y796694D01*
X534676Y796758D01*
X534627Y796790D01*
X534584Y796830D01*
X534509Y796869D01*
X534439Y796916D01*
X534383Y796933D01*
X534331Y796960D01*
X534263Y796971D01*
X534168Y797001D01*
X534068Y797004D01*
X534000Y797015D01*
X454000Y797015D01*
X453942Y797007D01*
X453884Y797009D01*
X453802Y796987D01*
X453719Y796975D01*
X453665Y796952D01*
X453609Y796937D01*
X453536Y796894D01*
X453459Y796859D01*
X453414Y796821D01*
X453364Y796792D01*
X453306Y796730D01*
X453242Y796676D01*
X453210Y796627D01*
X453170Y796584D01*
X453131Y796509D01*
X453085Y796439D01*
X453067Y796383D01*
X453040Y796331D01*
X453029Y796263D01*
X452999Y796168D01*
X452996Y796068D01*
X452985Y796000D01*
X452985Y614000D01*
X452993Y613942D01*
X452991Y613884D01*
X453013Y613802D01*
X453025Y613719D01*
X453049Y613665D01*
X453063Y613609D01*
X453106Y613536D01*
X453141Y613459D01*
X453179Y613414D01*
X453209Y613364D01*
X453270Y613306D01*
X453325Y613242D01*
X453373Y613210D01*
X453416Y613170D01*
X453491Y613131D01*
X453561Y613085D01*
X453617Y613067D01*
X453669Y613040D01*
X453737Y613029D01*
X453832Y612999D01*
X453932Y612996D01*
X454000Y612985D01*
X534000Y612985D01*
X534058Y612993D01*
G37*
G36*
X282058Y612993D02*
X282058Y612993D01*
X282116Y612991D01*
X282198Y613013D01*
X282282Y613025D01*
X282335Y613049D01*
X282391Y613063D01*
X282464Y613106D01*
X282541Y613141D01*
X282586Y613179D01*
X282636Y613209D01*
X282694Y613270D01*
X282758Y613325D01*
X282790Y613373D01*
X282830Y613416D01*
X282869Y613491D01*
X282916Y613561D01*
X282933Y613617D01*
X282960Y613669D01*
X282971Y613737D01*
X283001Y613832D01*
X283004Y613932D01*
X283015Y614000D01*
X283015Y796000D01*
X283007Y796058D01*
X283009Y796116D01*
X282987Y796198D01*
X282975Y796282D01*
X282952Y796335D01*
X282937Y796391D01*
X282894Y796464D01*
X282859Y796541D01*
X282821Y796586D01*
X282792Y796636D01*
X282730Y796694D01*
X282676Y796758D01*
X282627Y796790D01*
X282584Y796830D01*
X282509Y796869D01*
X282439Y796916D01*
X282383Y796933D01*
X282331Y796960D01*
X282263Y796971D01*
X282168Y797001D01*
X282068Y797004D01*
X282000Y797015D01*
X204000Y797015D01*
X203942Y797007D01*
X203884Y797009D01*
X203802Y796987D01*
X203719Y796975D01*
X203665Y796952D01*
X203609Y796937D01*
X203536Y796894D01*
X203459Y796859D01*
X203414Y796821D01*
X203364Y796792D01*
X203306Y796730D01*
X203242Y796676D01*
X203210Y796627D01*
X203170Y796584D01*
X203131Y796509D01*
X203085Y796439D01*
X203067Y796383D01*
X203040Y796331D01*
X203029Y796263D01*
X202999Y796168D01*
X202996Y796068D01*
X202985Y796000D01*
X202985Y614000D01*
X202993Y613942D01*
X202991Y613884D01*
X203013Y613802D01*
X203025Y613719D01*
X203049Y613665D01*
X203063Y613609D01*
X203106Y613536D01*
X203141Y613459D01*
X203179Y613414D01*
X203209Y613364D01*
X203270Y613306D01*
X203325Y613242D01*
X203373Y613210D01*
X203416Y613170D01*
X203491Y613131D01*
X203561Y613085D01*
X203617Y613067D01*
X203669Y613040D01*
X203737Y613029D01*
X203832Y612999D01*
X203932Y612996D01*
X204000Y612985D01*
X282000Y612985D01*
X282058Y612993D01*
G37*
%LPC*%
G36*
X1051088Y398499D02*
X1051088Y398499D01*
X1037735Y402077D01*
X1025764Y408989D01*
X1015989Y418764D01*
X1009077Y430735D01*
X1005499Y444088D01*
X1005499Y457912D01*
X1009077Y471265D01*
X1015989Y483236D01*
X1025764Y493011D01*
X1037735Y499923D01*
X1051088Y503501D01*
X1064912Y503501D01*
X1078265Y499923D01*
X1090236Y493011D01*
X1100011Y483236D01*
X1106923Y471265D01*
X1110501Y457912D01*
X1110501Y444088D01*
X1106923Y430735D01*
X1100011Y418764D01*
X1090236Y408989D01*
X1078265Y402077D01*
X1064912Y398499D01*
X1051088Y398499D01*
G37*
%LPD*%
%LPC*%
G36*
X279060Y47065D02*
X279060Y47065D01*
X278713Y47412D01*
X278643Y47464D01*
X278579Y47524D01*
X278530Y47550D01*
X278486Y47583D01*
X278404Y47614D01*
X278326Y47654D01*
X278279Y47662D01*
X278220Y47684D01*
X278073Y47696D01*
X277995Y47709D01*
X163428Y47709D01*
X150739Y60398D01*
X150739Y67464D01*
X150731Y67522D01*
X150733Y67580D01*
X150711Y67662D01*
X150699Y67746D01*
X150676Y67799D01*
X150661Y67855D01*
X150618Y67928D01*
X150583Y68005D01*
X150545Y68050D01*
X150516Y68100D01*
X150454Y68158D01*
X150400Y68222D01*
X150351Y68254D01*
X150308Y68294D01*
X150233Y68333D01*
X150163Y68380D01*
X150107Y68397D01*
X150055Y68424D01*
X149987Y68435D01*
X149892Y68465D01*
X149792Y68468D01*
X149724Y68479D01*
X145909Y68479D01*
X145611Y68777D01*
X145611Y99679D01*
X145909Y99977D01*
X147074Y99977D01*
X147103Y99981D01*
X147132Y99978D01*
X147243Y100001D01*
X147356Y100017D01*
X147382Y100029D01*
X147411Y100034D01*
X147512Y100087D01*
X147615Y100133D01*
X147637Y100152D01*
X147663Y100165D01*
X147746Y100243D01*
X147832Y100316D01*
X147848Y100341D01*
X147870Y100361D01*
X147927Y100459D01*
X147990Y100553D01*
X147999Y100581D01*
X148013Y100606D01*
X148041Y100716D01*
X148075Y100824D01*
X148076Y100854D01*
X148083Y100882D01*
X148080Y100995D01*
X148083Y101108D01*
X148075Y101137D01*
X148074Y101166D01*
X148039Y101274D01*
X148011Y101383D01*
X147996Y101409D01*
X147987Y101437D01*
X147941Y101501D01*
X147866Y101628D01*
X147820Y101671D01*
X147792Y101710D01*
X146471Y103031D01*
X146471Y104669D01*
X154314Y104669D01*
X154372Y104677D01*
X154430Y104675D01*
X154512Y104697D01*
X154595Y104709D01*
X154649Y104733D01*
X154705Y104747D01*
X154778Y104790D01*
X154855Y104825D01*
X154899Y104863D01*
X154950Y104893D01*
X155007Y104954D01*
X155072Y105009D01*
X155104Y105057D01*
X155144Y105100D01*
X155183Y105175D01*
X155229Y105245D01*
X155247Y105301D01*
X155274Y105353D01*
X155285Y105421D01*
X155315Y105516D01*
X155318Y105616D01*
X155329Y105684D01*
X155329Y106701D01*
X156346Y106701D01*
X156404Y106709D01*
X156462Y106708D01*
X156544Y106729D01*
X156627Y106741D01*
X156681Y106765D01*
X156737Y106779D01*
X156810Y106822D01*
X156887Y106857D01*
X156932Y106895D01*
X156982Y106925D01*
X157040Y106986D01*
X157104Y107041D01*
X157136Y107089D01*
X157176Y107132D01*
X157215Y107207D01*
X157261Y107277D01*
X157279Y107333D01*
X157306Y107385D01*
X157317Y107453D01*
X157347Y107548D01*
X157350Y107648D01*
X157361Y107716D01*
X157361Y115559D01*
X157957Y115559D01*
X158037Y115570D01*
X158118Y115572D01*
X158177Y115590D01*
X158238Y115599D01*
X158312Y115632D01*
X158389Y115656D01*
X158441Y115690D01*
X158498Y115715D01*
X158559Y115767D01*
X158627Y115811D01*
X158667Y115858D01*
X158715Y115898D01*
X158759Y115966D01*
X158812Y116027D01*
X158838Y116083D01*
X158872Y116135D01*
X158897Y116212D01*
X158930Y116286D01*
X158937Y116339D01*
X158958Y116406D01*
X158961Y116541D01*
X158971Y116619D01*
X158661Y123586D01*
X158649Y123650D01*
X158647Y123716D01*
X158634Y123755D01*
X158634Y124166D01*
X158631Y124191D01*
X158633Y124211D01*
X158625Y124401D01*
X158760Y124536D01*
X158775Y124556D01*
X158791Y124568D01*
X158919Y124709D01*
X159109Y124709D01*
X159134Y124712D01*
X159154Y124710D01*
X159547Y124727D01*
X159554Y124725D01*
X159663Y124721D01*
X159735Y124709D01*
X274267Y124709D01*
X274565Y124411D01*
X274565Y84999D01*
X274577Y84912D01*
X274580Y84825D01*
X274597Y84772D01*
X274605Y84717D01*
X274640Y84637D01*
X274667Y84554D01*
X274695Y84515D01*
X274721Y84458D01*
X274817Y84345D01*
X274862Y84281D01*
X276051Y83092D01*
X276051Y78908D01*
X274862Y77719D01*
X274810Y77649D01*
X274750Y77586D01*
X274724Y77536D01*
X274691Y77492D01*
X274660Y77410D01*
X274620Y77332D01*
X274612Y77285D01*
X274590Y77226D01*
X274585Y77163D01*
X274579Y77144D01*
X274577Y77074D01*
X274565Y77001D01*
X274565Y68777D01*
X274267Y68479D01*
X160936Y68479D01*
X160878Y68471D01*
X160820Y68473D01*
X160738Y68451D01*
X160654Y68439D01*
X160601Y68416D01*
X160545Y68401D01*
X160472Y68358D01*
X160395Y68323D01*
X160350Y68285D01*
X160300Y68256D01*
X160242Y68194D01*
X160178Y68140D01*
X160146Y68091D01*
X160106Y68048D01*
X160067Y67973D01*
X160020Y67903D01*
X160003Y67847D01*
X159976Y67795D01*
X159965Y67727D01*
X159935Y67632D01*
X159932Y67532D01*
X159921Y67464D01*
X159921Y64622D01*
X159933Y64535D01*
X159936Y64448D01*
X159953Y64395D01*
X159961Y64341D01*
X159996Y64261D01*
X160023Y64178D01*
X160051Y64138D01*
X160077Y64081D01*
X160173Y63968D01*
X160218Y63904D01*
X166934Y57188D01*
X167004Y57136D01*
X167068Y57076D01*
X167117Y57050D01*
X167161Y57017D01*
X167243Y56986D01*
X167321Y56946D01*
X167369Y56938D01*
X167427Y56916D01*
X167575Y56904D01*
X167652Y56891D01*
X278364Y56891D01*
X278450Y56903D01*
X278538Y56906D01*
X278590Y56923D01*
X278645Y56931D01*
X278725Y56966D01*
X278808Y56993D01*
X278847Y57021D01*
X278904Y57047D01*
X279018Y57143D01*
X279051Y57167D01*
X283244Y57167D01*
X286203Y54208D01*
X286203Y50024D01*
X283244Y47065D01*
X279060Y47065D01*
G37*
%LPD*%
%LPC*%
G36*
X698068Y142197D02*
X698068Y142197D01*
X697621Y142644D01*
X697621Y185212D01*
X698068Y185659D01*
X795886Y185659D01*
X795944Y185667D01*
X796002Y185665D01*
X796084Y185687D01*
X796168Y185699D01*
X796221Y185722D01*
X796277Y185737D01*
X796350Y185780D01*
X796427Y185815D01*
X796472Y185853D01*
X796522Y185882D01*
X796580Y185944D01*
X796644Y185998D01*
X796676Y186047D01*
X796716Y186090D01*
X796755Y186165D01*
X796802Y186235D01*
X796819Y186291D01*
X796846Y186343D01*
X796857Y186411D01*
X796887Y186506D01*
X796890Y186606D01*
X796901Y186674D01*
X796901Y191092D01*
X798588Y192779D01*
X798640Y192848D01*
X798700Y192912D01*
X798726Y192962D01*
X798759Y193006D01*
X798790Y193088D01*
X798830Y193166D01*
X798838Y193213D01*
X798860Y193272D01*
X798872Y193419D01*
X798885Y193497D01*
X798885Y220270D01*
X808636Y230021D01*
X808688Y230091D01*
X808748Y230155D01*
X808774Y230204D01*
X808807Y230248D01*
X808838Y230330D01*
X808878Y230408D01*
X808886Y230455D01*
X808908Y230514D01*
X808920Y230661D01*
X808933Y230739D01*
X808933Y502503D01*
X808921Y502590D01*
X808918Y502677D01*
X808901Y502730D01*
X808893Y502785D01*
X808858Y502865D01*
X808831Y502948D01*
X808803Y502987D01*
X808777Y503044D01*
X808681Y503157D01*
X808636Y503221D01*
X806949Y504908D01*
X806949Y509092D01*
X809908Y512051D01*
X814092Y512051D01*
X817051Y509092D01*
X817051Y504908D01*
X815364Y503221D01*
X815312Y503151D01*
X815252Y503088D01*
X815226Y503038D01*
X815193Y502994D01*
X815162Y502912D01*
X815122Y502834D01*
X815114Y502787D01*
X815092Y502728D01*
X815080Y502581D01*
X815067Y502503D01*
X815067Y227778D01*
X805316Y218027D01*
X805264Y217957D01*
X805204Y217893D01*
X805178Y217844D01*
X805145Y217800D01*
X805114Y217718D01*
X805074Y217640D01*
X805066Y217593D01*
X805044Y217534D01*
X805032Y217387D01*
X805019Y217309D01*
X805019Y193497D01*
X805031Y193410D01*
X805034Y193323D01*
X805051Y193270D01*
X805059Y193215D01*
X805094Y193135D01*
X805121Y193052D01*
X805149Y193013D01*
X805175Y192956D01*
X805271Y192842D01*
X805316Y192779D01*
X807003Y191092D01*
X807003Y186674D01*
X807011Y186616D01*
X807009Y186558D01*
X807031Y186476D01*
X807043Y186392D01*
X807066Y186339D01*
X807081Y186283D01*
X807124Y186210D01*
X807159Y186133D01*
X807197Y186088D01*
X807226Y186038D01*
X807288Y185980D01*
X807342Y185916D01*
X807391Y185884D01*
X807434Y185844D01*
X807509Y185805D01*
X807579Y185758D01*
X807635Y185741D01*
X807687Y185714D01*
X807755Y185703D01*
X807850Y185673D01*
X807950Y185670D01*
X808018Y185659D01*
X833596Y185659D01*
X834043Y185212D01*
X834043Y142644D01*
X833596Y142197D01*
X698068Y142197D01*
G37*
%LPD*%
%LPC*%
G36*
X947496Y45997D02*
X947496Y45997D01*
X947049Y46444D01*
X947049Y146264D01*
X947037Y146351D01*
X947034Y146438D01*
X947017Y146491D01*
X947009Y146545D01*
X946974Y146625D01*
X946947Y146708D01*
X946919Y146748D01*
X946893Y146805D01*
X946797Y146918D01*
X946752Y146982D01*
X936679Y157054D01*
X936679Y565757D01*
X936667Y565844D01*
X936664Y565931D01*
X936647Y565984D01*
X936639Y566039D01*
X936604Y566119D01*
X936577Y566202D01*
X936549Y566241D01*
X936523Y566298D01*
X936427Y566412D01*
X936382Y566475D01*
X934949Y567908D01*
X934949Y572092D01*
X937908Y575051D01*
X942092Y575051D01*
X945051Y572092D01*
X945051Y567908D01*
X943618Y566475D01*
X943566Y566406D01*
X943506Y566342D01*
X943480Y566292D01*
X943447Y566248D01*
X943416Y566166D01*
X943376Y566088D01*
X943368Y566041D01*
X943346Y565982D01*
X943334Y565835D01*
X943321Y565757D01*
X943321Y160226D01*
X943329Y160168D01*
X943327Y160110D01*
X943335Y160082D01*
X943336Y160052D01*
X943353Y159999D01*
X943361Y159945D01*
X943385Y159891D01*
X943399Y159835D01*
X943414Y159810D01*
X943423Y159782D01*
X943451Y159742D01*
X943477Y159685D01*
X943516Y159639D01*
X943544Y159591D01*
X943589Y159549D01*
X943618Y159508D01*
X951934Y151192D01*
X952004Y151140D01*
X952068Y151080D01*
X952117Y151054D01*
X952161Y151021D01*
X952243Y150990D01*
X952321Y150950D01*
X952369Y150942D01*
X952427Y150920D01*
X952575Y150908D01*
X952652Y150895D01*
X972788Y150895D01*
X973235Y150448D01*
X973235Y134601D01*
X973247Y134515D01*
X973250Y134427D01*
X973267Y134375D01*
X973275Y134320D01*
X973310Y134240D01*
X973337Y134157D01*
X973365Y134117D01*
X973391Y134060D01*
X973487Y133947D01*
X973532Y133883D01*
X976543Y130872D01*
X978935Y128481D01*
X978935Y101389D01*
X973532Y95987D01*
X973480Y95917D01*
X973420Y95853D01*
X973394Y95804D01*
X973361Y95759D01*
X973335Y95689D01*
X973334Y95689D01*
X973330Y95678D01*
X973290Y95600D01*
X973282Y95552D01*
X973260Y95494D01*
X973255Y95440D01*
X973249Y95418D01*
X973247Y95340D01*
X973235Y95269D01*
X973235Y46444D01*
X972788Y45997D01*
X947496Y45997D01*
G37*
%LPD*%
%LPC*%
G36*
X61684Y263237D02*
X61684Y263237D01*
X61237Y263684D01*
X61237Y342316D01*
X61684Y342763D01*
X95664Y342763D01*
X95722Y342771D01*
X95780Y342769D01*
X95862Y342791D01*
X95946Y342803D01*
X95999Y342826D01*
X96055Y342841D01*
X96128Y342884D01*
X96205Y342919D01*
X96250Y342957D01*
X96300Y342986D01*
X96358Y343048D01*
X96422Y343102D01*
X96454Y343151D01*
X96494Y343194D01*
X96533Y343269D01*
X96580Y343339D01*
X96597Y343395D01*
X96624Y343447D01*
X96635Y343515D01*
X96665Y343610D01*
X96668Y343710D01*
X96679Y343778D01*
X96679Y383757D01*
X96667Y383844D01*
X96664Y383931D01*
X96647Y383984D01*
X96639Y384039D01*
X96604Y384119D01*
X96577Y384202D01*
X96549Y384241D01*
X96523Y384298D01*
X96427Y384412D01*
X96382Y384475D01*
X94949Y385908D01*
X94949Y390092D01*
X97908Y393051D01*
X102092Y393051D01*
X105051Y390092D01*
X105051Y385908D01*
X103618Y384475D01*
X103566Y384406D01*
X103506Y384342D01*
X103480Y384292D01*
X103447Y384248D01*
X103416Y384166D01*
X103376Y384088D01*
X103368Y384041D01*
X103346Y383982D01*
X103334Y383835D01*
X103321Y383757D01*
X103321Y343778D01*
X103329Y343720D01*
X103327Y343662D01*
X103349Y343580D01*
X103361Y343496D01*
X103384Y343443D01*
X103399Y343387D01*
X103442Y343314D01*
X103477Y343237D01*
X103515Y343192D01*
X103544Y343142D01*
X103606Y343084D01*
X103660Y343020D01*
X103709Y342988D01*
X103752Y342948D01*
X103827Y342909D01*
X103897Y342862D01*
X103953Y342845D01*
X104005Y342818D01*
X104073Y342807D01*
X104168Y342777D01*
X104268Y342774D01*
X104336Y342763D01*
X110316Y342763D01*
X110763Y342316D01*
X110763Y277556D01*
X110313Y277106D01*
X110278Y277101D01*
X110220Y277103D01*
X110138Y277081D01*
X110054Y277069D01*
X110001Y277046D01*
X109945Y277031D01*
X109872Y276988D01*
X109795Y276953D01*
X109750Y276915D01*
X109700Y276886D01*
X109642Y276824D01*
X109578Y276770D01*
X109546Y276721D01*
X109506Y276678D01*
X109467Y276603D01*
X109420Y276533D01*
X109403Y276477D01*
X109376Y276425D01*
X109365Y276357D01*
X109335Y276262D01*
X109332Y276162D01*
X109321Y276094D01*
X109321Y273615D01*
X103685Y267979D01*
X101731Y267979D01*
X101731Y276094D01*
X101723Y276152D01*
X101725Y276210D01*
X101703Y276292D01*
X101691Y276376D01*
X101667Y276429D01*
X101653Y276485D01*
X101610Y276558D01*
X101575Y276635D01*
X101537Y276680D01*
X101507Y276730D01*
X101446Y276788D01*
X101391Y276852D01*
X101343Y276884D01*
X101300Y276924D01*
X101225Y276963D01*
X101155Y277010D01*
X101099Y277027D01*
X101047Y277054D01*
X100979Y277065D01*
X100884Y277095D01*
X100784Y277098D01*
X100716Y277109D01*
X98684Y277109D01*
X98626Y277101D01*
X98568Y277103D01*
X98486Y277081D01*
X98403Y277069D01*
X98349Y277046D01*
X98293Y277031D01*
X98220Y276988D01*
X98143Y276953D01*
X98098Y276915D01*
X98048Y276886D01*
X97990Y276824D01*
X97926Y276770D01*
X97894Y276721D01*
X97854Y276678D01*
X97815Y276603D01*
X97769Y276533D01*
X97751Y276477D01*
X97724Y276425D01*
X97713Y276357D01*
X97683Y276262D01*
X97680Y276162D01*
X97669Y276094D01*
X97669Y267979D01*
X95715Y267979D01*
X94496Y269198D01*
X94472Y269216D01*
X94453Y269238D01*
X94359Y269301D01*
X94269Y269369D01*
X94241Y269380D01*
X94217Y269396D01*
X94109Y269430D01*
X94003Y269470D01*
X93974Y269473D01*
X93946Y269482D01*
X93832Y269485D01*
X93720Y269494D01*
X93691Y269488D01*
X93662Y269489D01*
X93552Y269460D01*
X93441Y269438D01*
X93415Y269425D01*
X93387Y269417D01*
X93289Y269360D01*
X93189Y269307D01*
X93167Y269287D01*
X93142Y269272D01*
X93065Y269190D01*
X92983Y269111D01*
X92968Y269086D01*
X92948Y269065D01*
X92896Y268964D01*
X92839Y268866D01*
X92832Y268838D01*
X92818Y268812D01*
X92805Y268734D01*
X92769Y268591D01*
X92771Y268528D01*
X92763Y268480D01*
X92763Y263684D01*
X92316Y263237D01*
X61684Y263237D01*
G37*
%LPD*%
%LPC*%
G36*
X774835Y377187D02*
X774835Y377187D01*
X769187Y382835D01*
X769187Y391165D01*
X784835Y406813D01*
X788902Y406813D01*
X788960Y406821D01*
X789018Y406819D01*
X789100Y406841D01*
X789184Y406853D01*
X789237Y406876D01*
X789293Y406891D01*
X789366Y406934D01*
X789443Y406969D01*
X789488Y407007D01*
X789538Y407036D01*
X789596Y407098D01*
X789660Y407152D01*
X789692Y407201D01*
X789732Y407244D01*
X789771Y407319D01*
X789818Y407389D01*
X789835Y407445D01*
X789862Y407497D01*
X789873Y407565D01*
X789903Y407660D01*
X789906Y407760D01*
X789917Y407828D01*
X789917Y514144D01*
X789907Y514215D01*
X789907Y514286D01*
X789887Y514355D01*
X789877Y514426D01*
X789848Y514491D01*
X789828Y514559D01*
X789790Y514620D01*
X789761Y514685D01*
X789715Y514739D01*
X789677Y514800D01*
X789624Y514848D01*
X789578Y514902D01*
X789518Y514942D01*
X789465Y514989D01*
X789400Y515020D01*
X789341Y515060D01*
X789273Y515081D01*
X789208Y515112D01*
X789149Y515120D01*
X789070Y515145D01*
X788951Y515148D01*
X788876Y515159D01*
X788814Y515157D01*
X787995Y515977D01*
X787983Y515985D01*
X787976Y515995D01*
X787136Y516793D01*
X787136Y517951D01*
X787134Y517965D01*
X787136Y517977D01*
X786819Y530400D01*
X786807Y530474D01*
X786804Y530549D01*
X786783Y530613D01*
X786779Y530638D01*
X786779Y531951D01*
X786777Y531966D01*
X786779Y531977D01*
X786749Y533135D01*
X787568Y533954D01*
X787577Y533966D01*
X787587Y533973D01*
X788384Y534813D01*
X789543Y534813D01*
X789557Y534815D01*
X789569Y534813D01*
X790881Y534847D01*
X790920Y534833D01*
X791045Y534825D01*
X791120Y534813D01*
X804414Y534813D01*
X804501Y534825D01*
X804588Y534828D01*
X804641Y534845D01*
X804696Y534853D01*
X804776Y534888D01*
X804859Y534915D01*
X804898Y534943D01*
X804955Y534969D01*
X805069Y535065D01*
X805132Y535110D01*
X818835Y548813D01*
X829102Y548813D01*
X829133Y548817D01*
X829164Y548815D01*
X829273Y548837D01*
X829383Y548853D01*
X829412Y548865D01*
X829443Y548872D01*
X829511Y548910D01*
X829554Y548929D01*
X830544Y548819D01*
X830608Y548821D01*
X830656Y548813D01*
X831651Y548813D01*
X831711Y548768D01*
X831740Y548756D01*
X831767Y548739D01*
X831842Y548718D01*
X831977Y548666D01*
X832042Y548661D01*
X832090Y548647D01*
X832282Y548626D01*
X832396Y548629D01*
X832510Y548626D01*
X832538Y548634D01*
X832566Y548634D01*
X832675Y548669D01*
X832785Y548698D01*
X832810Y548713D01*
X832837Y548721D01*
X832931Y548785D01*
X833030Y548843D01*
X833049Y548864D01*
X833073Y548880D01*
X833146Y548967D01*
X833224Y549051D01*
X833237Y549076D01*
X833255Y549098D01*
X833302Y549202D01*
X833354Y549304D01*
X833358Y549329D01*
X833371Y549357D01*
X833406Y549616D01*
X833409Y549635D01*
X833409Y580033D01*
X833397Y580120D01*
X833394Y580207D01*
X833377Y580260D01*
X833369Y580315D01*
X833334Y580395D01*
X833307Y580478D01*
X833279Y580517D01*
X833253Y580574D01*
X833157Y580688D01*
X833112Y580751D01*
X832949Y580914D01*
X832949Y585098D01*
X835908Y588057D01*
X840092Y588057D01*
X843051Y585098D01*
X843051Y580914D01*
X842888Y580751D01*
X842836Y580682D01*
X842776Y580618D01*
X842750Y580568D01*
X842717Y580524D01*
X842686Y580442D01*
X842646Y580364D01*
X842638Y580317D01*
X842616Y580258D01*
X842604Y580111D01*
X842591Y580033D01*
X842591Y482973D01*
X842603Y482886D01*
X842606Y482799D01*
X842623Y482746D01*
X842631Y482691D01*
X842666Y482611D01*
X842693Y482528D01*
X842721Y482489D01*
X842747Y482432D01*
X842843Y482318D01*
X842888Y482255D01*
X843051Y482092D01*
X843051Y477908D01*
X840092Y474949D01*
X835908Y474949D01*
X832949Y477908D01*
X832949Y482092D01*
X833112Y482255D01*
X833164Y482324D01*
X833224Y482388D01*
X833250Y482438D01*
X833283Y482482D01*
X833314Y482564D01*
X833354Y482642D01*
X833362Y482689D01*
X833384Y482748D01*
X833396Y482895D01*
X833409Y482973D01*
X833409Y534913D01*
X833402Y534962D01*
X833403Y534970D01*
X833400Y534982D01*
X833393Y535027D01*
X833383Y535142D01*
X833373Y535168D01*
X833369Y535195D01*
X833322Y535300D01*
X833281Y535407D01*
X833264Y535429D01*
X833253Y535454D01*
X833179Y535542D01*
X833109Y535634D01*
X833087Y535650D01*
X833070Y535671D01*
X832974Y535735D01*
X832881Y535804D01*
X832856Y535813D01*
X832833Y535829D01*
X832723Y535863D01*
X832615Y535904D01*
X832588Y535906D01*
X832562Y535914D01*
X832446Y535917D01*
X832331Y535926D01*
X832305Y535921D01*
X832278Y535922D01*
X832166Y535892D01*
X832053Y535869D01*
X832032Y535857D01*
X832003Y535850D01*
X831769Y535711D01*
X831760Y535706D01*
X831423Y535436D01*
X831379Y535390D01*
X831339Y535361D01*
X813110Y517132D01*
X811165Y515187D01*
X799098Y515187D01*
X799040Y515179D01*
X798982Y515181D01*
X798900Y515159D01*
X798816Y515147D01*
X798763Y515124D01*
X798707Y515109D01*
X798634Y515066D01*
X798557Y515031D01*
X798512Y514993D01*
X798462Y514964D01*
X798404Y514902D01*
X798340Y514848D01*
X798308Y514799D01*
X798268Y514756D01*
X798229Y514681D01*
X798182Y514611D01*
X798165Y514555D01*
X798138Y514503D01*
X798127Y514435D01*
X798097Y514340D01*
X798094Y514240D01*
X798083Y514172D01*
X798083Y402316D01*
X798095Y402229D01*
X798098Y402142D01*
X798115Y402089D01*
X798123Y402034D01*
X798158Y401954D01*
X798185Y401871D01*
X798213Y401832D01*
X798239Y401775D01*
X798335Y401661D01*
X798380Y401598D01*
X798813Y401165D01*
X798813Y382835D01*
X793165Y377187D01*
X774835Y377187D01*
G37*
%LPD*%
%LPC*%
G36*
X721436Y18341D02*
X721436Y18341D01*
X720989Y18788D01*
X720989Y57164D01*
X721436Y57611D01*
X811596Y57611D01*
X812043Y57164D01*
X812043Y18788D01*
X811596Y18341D01*
X721436Y18341D01*
G37*
%LPD*%
%LPC*%
G36*
X345908Y170949D02*
X345908Y170949D01*
X342949Y173908D01*
X342949Y178092D01*
X343620Y178763D01*
X343672Y178832D01*
X343732Y178896D01*
X343758Y178946D01*
X343791Y178990D01*
X343822Y179072D01*
X343862Y179150D01*
X343870Y179197D01*
X343892Y179256D01*
X343898Y179333D01*
X343903Y179348D01*
X343905Y179406D01*
X343917Y179481D01*
X343917Y250323D01*
X343913Y250353D01*
X343916Y250382D01*
X343893Y250493D01*
X343877Y250605D01*
X343865Y250632D01*
X343860Y250661D01*
X343807Y250761D01*
X343761Y250864D01*
X343742Y250887D01*
X343729Y250913D01*
X343651Y250995D01*
X343578Y251081D01*
X343553Y251098D01*
X343533Y251119D01*
X343435Y251176D01*
X343341Y251239D01*
X343313Y251248D01*
X343288Y251263D01*
X343178Y251291D01*
X343070Y251325D01*
X343041Y251325D01*
X343012Y251333D01*
X342899Y251329D01*
X342786Y251332D01*
X342757Y251325D01*
X342728Y251324D01*
X342620Y251289D01*
X342511Y251260D01*
X342485Y251245D01*
X342457Y251236D01*
X342393Y251191D01*
X342266Y251115D01*
X342223Y251069D01*
X342184Y251041D01*
X342092Y250949D01*
X340066Y250949D01*
X340008Y250941D01*
X339950Y250943D01*
X339868Y250921D01*
X339784Y250909D01*
X339731Y250886D01*
X339675Y250871D01*
X339602Y250828D01*
X339525Y250793D01*
X339480Y250755D01*
X339430Y250726D01*
X339372Y250664D01*
X339308Y250610D01*
X339276Y250561D01*
X339236Y250518D01*
X339197Y250443D01*
X339150Y250373D01*
X339133Y250317D01*
X339106Y250265D01*
X339095Y250197D01*
X339065Y250102D01*
X339062Y250002D01*
X339051Y249934D01*
X339051Y245908D01*
X336092Y242949D01*
X331908Y242949D01*
X328949Y245908D01*
X328949Y250092D01*
X331908Y253051D01*
X333934Y253051D01*
X333992Y253059D01*
X334050Y253057D01*
X334132Y253079D01*
X334216Y253091D01*
X334269Y253114D01*
X334325Y253129D01*
X334398Y253172D01*
X334475Y253207D01*
X334520Y253245D01*
X334570Y253274D01*
X334628Y253336D01*
X334692Y253390D01*
X334724Y253439D01*
X334764Y253482D01*
X334803Y253557D01*
X334850Y253627D01*
X334867Y253683D01*
X334894Y253735D01*
X334905Y253803D01*
X334935Y253898D01*
X334938Y253998D01*
X334949Y254066D01*
X334949Y258092D01*
X337908Y261051D01*
X342092Y261051D01*
X342184Y260959D01*
X342208Y260941D01*
X342227Y260919D01*
X342321Y260856D01*
X342411Y260788D01*
X342439Y260777D01*
X342463Y260761D01*
X342571Y260727D01*
X342677Y260687D01*
X342706Y260684D01*
X342734Y260675D01*
X342847Y260672D01*
X342960Y260663D01*
X342989Y260669D01*
X343018Y260668D01*
X343128Y260697D01*
X343239Y260719D01*
X343265Y260732D01*
X343293Y260740D01*
X343391Y260798D01*
X343491Y260850D01*
X343513Y260870D01*
X343538Y260885D01*
X343615Y260968D01*
X343697Y261046D01*
X343712Y261071D01*
X343732Y261092D01*
X343784Y261193D01*
X343841Y261291D01*
X343848Y261319D01*
X343862Y261345D01*
X343875Y261423D01*
X343911Y261566D01*
X343909Y261629D01*
X343917Y261677D01*
X343917Y367247D01*
X343928Y367268D01*
X343936Y367316D01*
X343958Y367374D01*
X343970Y367522D01*
X343983Y367599D01*
X343983Y513757D01*
X348652Y518426D01*
X348704Y518496D01*
X348764Y518559D01*
X348790Y518609D01*
X348823Y518653D01*
X348854Y518735D01*
X348894Y518813D01*
X348902Y518860D01*
X348924Y518919D01*
X348936Y519066D01*
X348949Y519144D01*
X348949Y520092D01*
X351908Y523051D01*
X356092Y523051D01*
X359051Y520092D01*
X359051Y515908D01*
X356092Y512949D01*
X355144Y512949D01*
X355057Y512937D01*
X354970Y512934D01*
X354917Y512917D01*
X354862Y512909D01*
X354782Y512874D01*
X354699Y512847D01*
X354660Y512819D01*
X354603Y512793D01*
X354489Y512697D01*
X354426Y512652D01*
X352446Y510672D01*
X352394Y510602D01*
X352334Y510539D01*
X352308Y510489D01*
X352275Y510445D01*
X352244Y510363D01*
X352204Y510285D01*
X352196Y510238D01*
X352174Y510179D01*
X352162Y510032D01*
X352149Y509954D01*
X352149Y363661D01*
X352138Y363641D01*
X352130Y363593D01*
X352108Y363535D01*
X352102Y363460D01*
X352097Y363444D01*
X352095Y363384D01*
X352083Y363310D01*
X352083Y311677D01*
X352087Y311647D01*
X352084Y311618D01*
X352107Y311507D01*
X352123Y311395D01*
X352135Y311368D01*
X352140Y311340D01*
X352193Y311239D01*
X352239Y311136D01*
X352258Y311113D01*
X352271Y311087D01*
X352349Y311005D01*
X352422Y310919D01*
X352447Y310902D01*
X352467Y310881D01*
X352565Y310824D01*
X352659Y310761D01*
X352687Y310752D01*
X352712Y310737D01*
X352822Y310710D01*
X352930Y310675D01*
X352960Y310675D01*
X352988Y310667D01*
X353101Y310671D01*
X353214Y310668D01*
X353243Y310675D01*
X353272Y310676D01*
X353380Y310711D01*
X353489Y310740D01*
X353515Y310755D01*
X353543Y310764D01*
X353606Y310809D01*
X353734Y310885D01*
X353777Y310931D01*
X353816Y310959D01*
X355908Y313051D01*
X360092Y313051D01*
X363051Y310092D01*
X363051Y308645D01*
X363055Y308615D01*
X363052Y308586D01*
X363075Y308475D01*
X363091Y308363D01*
X363103Y308336D01*
X363108Y308308D01*
X363161Y308207D01*
X363207Y308104D01*
X363226Y308081D01*
X363239Y308055D01*
X363317Y307973D01*
X363390Y307887D01*
X363415Y307870D01*
X363435Y307849D01*
X363533Y307792D01*
X363627Y307729D01*
X363655Y307720D01*
X363680Y307705D01*
X363790Y307678D01*
X363898Y307643D01*
X363928Y307643D01*
X363956Y307635D01*
X364069Y307639D01*
X364182Y307636D01*
X364211Y307643D01*
X364240Y307644D01*
X364348Y307679D01*
X364457Y307708D01*
X364483Y307723D01*
X364511Y307732D01*
X364575Y307777D01*
X364702Y307853D01*
X364745Y307899D01*
X364784Y307927D01*
X365908Y309051D01*
X370092Y309051D01*
X373051Y306092D01*
X373051Y301908D01*
X370092Y298949D01*
X365908Y298949D01*
X362949Y301908D01*
X362949Y303355D01*
X362945Y303385D01*
X362948Y303414D01*
X362925Y303525D01*
X362909Y303637D01*
X362897Y303664D01*
X362892Y303692D01*
X362839Y303793D01*
X362793Y303896D01*
X362774Y303919D01*
X362761Y303945D01*
X362683Y304027D01*
X362610Y304113D01*
X362585Y304130D01*
X362565Y304151D01*
X362467Y304208D01*
X362373Y304271D01*
X362345Y304280D01*
X362320Y304295D01*
X362210Y304322D01*
X362102Y304357D01*
X362072Y304357D01*
X362044Y304365D01*
X361931Y304361D01*
X361818Y304364D01*
X361789Y304357D01*
X361760Y304356D01*
X361652Y304321D01*
X361543Y304292D01*
X361517Y304277D01*
X361489Y304268D01*
X361425Y304223D01*
X361298Y304147D01*
X361255Y304101D01*
X361216Y304073D01*
X360092Y302949D01*
X355908Y302949D01*
X353816Y305041D01*
X353792Y305059D01*
X353773Y305081D01*
X353679Y305144D01*
X353589Y305212D01*
X353561Y305223D01*
X353537Y305239D01*
X353429Y305273D01*
X353323Y305313D01*
X353294Y305316D01*
X353266Y305325D01*
X353152Y305328D01*
X353040Y305337D01*
X353011Y305331D01*
X352982Y305332D01*
X352872Y305303D01*
X352761Y305281D01*
X352735Y305268D01*
X352707Y305260D01*
X352609Y305202D01*
X352509Y305150D01*
X352487Y305130D01*
X352462Y305115D01*
X352385Y305032D01*
X352303Y304954D01*
X352288Y304929D01*
X352268Y304908D01*
X352216Y304807D01*
X352159Y304709D01*
X352152Y304681D01*
X352138Y304655D01*
X352125Y304577D01*
X352089Y304434D01*
X352091Y304371D01*
X352083Y304323D01*
X352083Y274677D01*
X352087Y274647D01*
X352084Y274618D01*
X352107Y274507D01*
X352123Y274395D01*
X352135Y274368D01*
X352140Y274340D01*
X352193Y274239D01*
X352239Y274136D01*
X352258Y274113D01*
X352271Y274087D01*
X352349Y274005D01*
X352422Y273919D01*
X352447Y273902D01*
X352467Y273881D01*
X352565Y273824D01*
X352659Y273761D01*
X352687Y273752D01*
X352712Y273737D01*
X352822Y273710D01*
X352930Y273675D01*
X352960Y273675D01*
X352988Y273667D01*
X353101Y273671D01*
X353214Y273668D01*
X353243Y273675D01*
X353272Y273676D01*
X353380Y273711D01*
X353489Y273740D01*
X353515Y273755D01*
X353543Y273764D01*
X353606Y273809D01*
X353734Y273885D01*
X353777Y273931D01*
X353816Y273959D01*
X356908Y277051D01*
X361092Y277051D01*
X364051Y274092D01*
X364051Y271066D01*
X364059Y271008D01*
X364057Y270950D01*
X364079Y270868D01*
X364091Y270784D01*
X364114Y270731D01*
X364129Y270675D01*
X364172Y270602D01*
X364207Y270525D01*
X364245Y270480D01*
X364274Y270430D01*
X364336Y270372D01*
X364390Y270308D01*
X364439Y270276D01*
X364482Y270236D01*
X364557Y270197D01*
X364627Y270150D01*
X364683Y270133D01*
X364735Y270106D01*
X364803Y270095D01*
X364898Y270065D01*
X364998Y270062D01*
X365066Y270051D01*
X369092Y270051D01*
X372051Y267092D01*
X372051Y262908D01*
X369092Y259949D01*
X364908Y259949D01*
X361949Y262908D01*
X361949Y265934D01*
X361941Y265992D01*
X361943Y266050D01*
X361921Y266132D01*
X361909Y266216D01*
X361886Y266269D01*
X361871Y266325D01*
X361828Y266398D01*
X361793Y266475D01*
X361755Y266520D01*
X361726Y266570D01*
X361664Y266628D01*
X361610Y266692D01*
X361561Y266724D01*
X361518Y266764D01*
X361443Y266803D01*
X361373Y266850D01*
X361317Y266867D01*
X361265Y266894D01*
X361197Y266905D01*
X361102Y266935D01*
X361002Y266938D01*
X360934Y266949D01*
X356908Y266949D01*
X353816Y270041D01*
X353792Y270059D01*
X353773Y270081D01*
X353679Y270144D01*
X353589Y270212D01*
X353561Y270223D01*
X353537Y270239D01*
X353429Y270273D01*
X353323Y270313D01*
X353294Y270316D01*
X353266Y270325D01*
X353152Y270328D01*
X353040Y270337D01*
X353011Y270331D01*
X352982Y270332D01*
X352872Y270303D01*
X352761Y270281D01*
X352735Y270268D01*
X352707Y270260D01*
X352609Y270202D01*
X352509Y270150D01*
X352487Y270130D01*
X352462Y270115D01*
X352385Y270032D01*
X352303Y269954D01*
X352288Y269929D01*
X352268Y269908D01*
X352216Y269807D01*
X352159Y269709D01*
X352152Y269681D01*
X352138Y269655D01*
X352125Y269577D01*
X352089Y269434D01*
X352091Y269371D01*
X352083Y269323D01*
X352083Y179481D01*
X352090Y179428D01*
X352089Y179400D01*
X352096Y179376D01*
X352098Y179307D01*
X352115Y179254D01*
X352123Y179199D01*
X352158Y179119D01*
X352185Y179036D01*
X352213Y178997D01*
X352239Y178940D01*
X352335Y178826D01*
X352380Y178763D01*
X353051Y178092D01*
X353051Y173908D01*
X350092Y170949D01*
X345908Y170949D01*
G37*
%LPD*%
%LPC*%
G36*
X1107516Y45489D02*
X1107516Y45489D01*
X1107069Y45936D01*
X1107069Y149940D01*
X1107516Y150387D01*
X1132808Y150387D01*
X1133255Y149940D01*
X1133255Y142221D01*
X1133267Y142135D01*
X1133270Y142047D01*
X1133287Y141994D01*
X1133295Y141940D01*
X1133330Y141860D01*
X1133357Y141777D01*
X1133385Y141737D01*
X1133411Y141680D01*
X1133507Y141567D01*
X1133552Y141503D01*
X1135442Y139613D01*
X1141495Y133561D01*
X1141495Y96549D01*
X1139103Y94158D01*
X1133552Y88607D01*
X1133500Y88537D01*
X1133440Y88473D01*
X1133414Y88424D01*
X1133381Y88380D01*
X1133350Y88298D01*
X1133310Y88220D01*
X1133302Y88172D01*
X1133280Y88114D01*
X1133268Y87966D01*
X1133255Y87889D01*
X1133255Y45936D01*
X1132808Y45489D01*
X1107516Y45489D01*
G37*
%LPD*%
%LPC*%
G36*
X1161364Y45489D02*
X1161364Y45489D01*
X1160917Y45936D01*
X1160917Y149940D01*
X1161364Y150387D01*
X1186656Y150387D01*
X1187103Y149940D01*
X1187103Y135915D01*
X1187115Y135828D01*
X1187118Y135741D01*
X1187135Y135688D01*
X1187143Y135633D01*
X1187178Y135554D01*
X1187205Y135470D01*
X1187233Y135431D01*
X1187259Y135374D01*
X1187355Y135261D01*
X1187400Y135197D01*
X1194327Y128270D01*
X1194327Y95250D01*
X1187400Y88323D01*
X1187348Y88253D01*
X1187288Y88189D01*
X1187262Y88140D01*
X1187229Y88096D01*
X1187198Y88014D01*
X1187158Y87936D01*
X1187150Y87889D01*
X1187128Y87830D01*
X1187116Y87683D01*
X1187103Y87605D01*
X1187103Y45936D01*
X1186656Y45489D01*
X1161364Y45489D01*
G37*
%LPD*%
%LPC*%
G36*
X1053160Y45489D02*
X1053160Y45489D01*
X1052713Y45936D01*
X1052713Y149940D01*
X1053160Y150387D01*
X1078452Y150387D01*
X1078899Y149940D01*
X1078899Y135617D01*
X1078911Y135531D01*
X1078914Y135443D01*
X1078931Y135391D01*
X1078939Y135336D01*
X1078974Y135256D01*
X1079001Y135173D01*
X1079029Y135133D01*
X1079055Y135076D01*
X1079151Y134963D01*
X1079196Y134899D01*
X1083223Y130872D01*
X1085615Y128481D01*
X1085615Y101389D01*
X1079196Y94971D01*
X1079144Y94901D01*
X1079084Y94837D01*
X1079058Y94788D01*
X1079025Y94743D01*
X1078999Y94675D01*
X1078998Y94674D01*
X1078997Y94669D01*
X1078994Y94662D01*
X1078954Y94584D01*
X1078946Y94536D01*
X1078924Y94478D01*
X1078920Y94425D01*
X1078913Y94403D01*
X1078911Y94324D01*
X1078899Y94253D01*
X1078899Y45936D01*
X1078452Y45489D01*
X1053160Y45489D01*
G37*
%LPD*%
%LPC*%
G36*
X1000328Y45997D02*
X1000328Y45997D01*
X999881Y46444D01*
X999881Y150448D01*
X1000328Y150895D01*
X1025620Y150895D01*
X1026067Y150448D01*
X1026067Y135109D01*
X1026079Y135023D01*
X1026082Y134935D01*
X1026099Y134883D01*
X1026107Y134828D01*
X1026142Y134748D01*
X1026169Y134665D01*
X1026197Y134625D01*
X1026223Y134568D01*
X1026319Y134455D01*
X1026364Y134391D01*
X1029883Y130872D01*
X1032275Y128481D01*
X1032275Y98849D01*
X1026364Y92939D01*
X1026312Y92869D01*
X1026252Y92805D01*
X1026226Y92756D01*
X1026193Y92711D01*
X1026169Y92647D01*
X1026166Y92644D01*
X1026162Y92630D01*
X1026122Y92552D01*
X1026114Y92504D01*
X1026092Y92446D01*
X1026088Y92395D01*
X1026081Y92373D01*
X1026079Y92292D01*
X1026067Y92221D01*
X1026067Y46444D01*
X1025620Y45997D01*
X1000328Y45997D01*
G37*
%LPD*%
%LPC*%
G36*
X1046676Y510949D02*
X1046676Y510949D01*
X1043717Y513908D01*
X1043717Y518092D01*
X1046676Y521051D01*
X1047099Y521051D01*
X1047185Y521063D01*
X1047273Y521066D01*
X1047325Y521083D01*
X1047380Y521091D01*
X1047460Y521126D01*
X1047543Y521153D01*
X1047583Y521181D01*
X1047640Y521207D01*
X1047753Y521303D01*
X1047817Y521348D01*
X1060055Y533586D01*
X1060108Y533657D01*
X1060168Y533722D01*
X1060193Y533770D01*
X1060226Y533813D01*
X1060257Y533896D01*
X1060297Y533975D01*
X1060305Y534022D01*
X1060327Y534079D01*
X1060339Y534229D01*
X1060352Y534306D01*
X1060161Y622421D01*
X1060156Y622457D01*
X1060156Y624741D01*
X1060155Y624742D01*
X1060156Y624743D01*
X1060151Y626644D01*
X1061495Y627988D01*
X1061496Y627989D01*
X1061497Y627989D01*
X1063112Y629612D01*
X1063137Y629629D01*
X1080210Y646703D01*
X1128250Y646703D01*
X1128308Y646711D01*
X1128366Y646709D01*
X1128448Y646731D01*
X1128532Y646743D01*
X1128585Y646766D01*
X1128641Y646781D01*
X1128714Y646824D01*
X1128791Y646859D01*
X1128836Y646897D01*
X1128886Y646926D01*
X1128944Y646988D01*
X1129008Y647042D01*
X1129040Y647091D01*
X1129080Y647134D01*
X1129119Y647209D01*
X1129166Y647279D01*
X1129183Y647335D01*
X1129210Y647387D01*
X1129221Y647455D01*
X1129251Y647550D01*
X1129254Y647650D01*
X1129265Y647718D01*
X1129265Y703998D01*
X1140072Y714804D01*
X1140124Y714874D01*
X1140184Y714938D01*
X1140210Y714987D01*
X1140243Y715031D01*
X1140274Y715113D01*
X1140314Y715191D01*
X1140322Y715239D01*
X1140344Y715297D01*
X1140352Y715389D01*
X1140355Y715400D01*
X1140356Y715446D01*
X1140369Y715522D01*
X1140369Y715752D01*
X1143328Y718711D01*
X1147512Y718711D01*
X1150471Y715752D01*
X1150471Y711568D01*
X1147512Y708609D01*
X1147282Y708609D01*
X1147195Y708597D01*
X1147108Y708594D01*
X1147055Y708577D01*
X1147001Y708569D01*
X1146921Y708534D01*
X1146838Y708507D01*
X1146798Y708479D01*
X1146741Y708453D01*
X1146628Y708357D01*
X1146564Y708312D01*
X1138744Y700492D01*
X1138692Y700422D01*
X1138632Y700358D01*
X1138606Y700309D01*
X1138573Y700265D01*
X1138542Y700183D01*
X1138502Y700105D01*
X1138494Y700057D01*
X1138472Y699999D01*
X1138460Y699851D01*
X1138447Y699774D01*
X1138447Y645085D01*
X1138459Y644998D01*
X1138462Y644911D01*
X1138479Y644858D01*
X1138487Y644803D01*
X1138522Y644723D01*
X1138549Y644640D01*
X1138577Y644601D01*
X1138603Y644544D01*
X1138699Y644430D01*
X1138744Y644367D01*
X1138907Y644204D01*
X1138907Y640020D01*
X1135948Y637061D01*
X1131764Y637061D01*
X1131601Y637224D01*
X1131532Y637276D01*
X1131468Y637336D01*
X1131418Y637362D01*
X1131374Y637395D01*
X1131292Y637426D01*
X1131214Y637466D01*
X1131167Y637474D01*
X1131108Y637496D01*
X1130961Y637508D01*
X1130883Y637521D01*
X1084434Y637521D01*
X1084347Y637509D01*
X1084260Y637506D01*
X1084207Y637489D01*
X1084153Y637481D01*
X1084073Y637446D01*
X1083990Y637419D01*
X1083950Y637391D01*
X1083893Y637365D01*
X1083780Y637269D01*
X1083716Y637224D01*
X1069639Y623147D01*
X1069586Y623076D01*
X1069526Y623012D01*
X1069501Y622963D01*
X1069469Y622920D01*
X1069437Y622837D01*
X1069397Y622758D01*
X1069389Y622712D01*
X1069367Y622654D01*
X1069355Y622504D01*
X1069342Y622427D01*
X1069534Y534312D01*
X1069539Y534277D01*
X1069539Y531992D01*
X1069539Y531991D01*
X1069539Y531990D01*
X1069543Y530090D01*
X1068199Y528746D01*
X1068198Y528745D01*
X1068197Y528744D01*
X1066582Y527122D01*
X1066557Y527104D01*
X1054116Y514663D01*
X1054064Y514593D01*
X1054004Y514529D01*
X1053978Y514480D01*
X1053945Y514436D01*
X1053914Y514354D01*
X1053874Y514276D01*
X1053866Y514229D01*
X1053844Y514170D01*
X1053832Y514022D01*
X1053819Y513945D01*
X1053819Y513908D01*
X1050860Y510949D01*
X1046676Y510949D01*
G37*
%LPD*%
%LPC*%
G36*
X435908Y166949D02*
X435908Y166949D01*
X432949Y169908D01*
X432949Y174112D01*
X432976Y174153D01*
X433044Y174243D01*
X433055Y174271D01*
X433071Y174295D01*
X433105Y174403D01*
X433145Y174509D01*
X433148Y174538D01*
X433157Y174566D01*
X433160Y174679D01*
X433169Y174792D01*
X433163Y174821D01*
X433164Y174850D01*
X433135Y174960D01*
X433113Y175071D01*
X433100Y175097D01*
X433092Y175125D01*
X433035Y175222D01*
X432982Y175323D01*
X432962Y175345D01*
X432947Y175370D01*
X432864Y175447D01*
X432786Y175529D01*
X432761Y175544D01*
X432740Y175564D01*
X432639Y175616D01*
X432541Y175673D01*
X432513Y175680D01*
X432487Y175694D01*
X432409Y175707D01*
X432266Y175743D01*
X432203Y175741D01*
X432155Y175749D01*
X419025Y175749D01*
X418938Y175737D01*
X418851Y175734D01*
X418798Y175717D01*
X418743Y175709D01*
X418663Y175674D01*
X418580Y175647D01*
X418541Y175619D01*
X418484Y175593D01*
X418370Y175497D01*
X418307Y175452D01*
X416620Y173765D01*
X412436Y173765D01*
X409477Y176724D01*
X409477Y176918D01*
X409469Y176976D01*
X409471Y177035D01*
X409449Y177116D01*
X409437Y177200D01*
X409414Y177253D01*
X409399Y177310D01*
X409356Y177382D01*
X409321Y177459D01*
X409283Y177504D01*
X409254Y177554D01*
X409192Y177612D01*
X409138Y177676D01*
X409089Y177709D01*
X409046Y177749D01*
X408971Y177787D01*
X408901Y177834D01*
X408845Y177851D01*
X408793Y177878D01*
X408725Y177889D01*
X408630Y177920D01*
X408530Y177922D01*
X408462Y177933D01*
X404204Y177933D01*
X401245Y180892D01*
X401245Y185076D01*
X404204Y188035D01*
X406855Y188035D01*
X406941Y188047D01*
X407029Y188050D01*
X407081Y188067D01*
X407136Y188075D01*
X407216Y188111D01*
X407299Y188137D01*
X407339Y188165D01*
X407396Y188191D01*
X407509Y188287D01*
X407573Y188332D01*
X408713Y189473D01*
X417934Y189473D01*
X417992Y189481D01*
X418050Y189479D01*
X418132Y189501D01*
X418216Y189513D01*
X418269Y189536D01*
X418325Y189551D01*
X418398Y189594D01*
X418475Y189629D01*
X418520Y189667D01*
X418570Y189696D01*
X418628Y189758D01*
X418692Y189812D01*
X418724Y189861D01*
X418764Y189904D01*
X418803Y189979D01*
X418850Y190049D01*
X418867Y190105D01*
X418894Y190157D01*
X418905Y190225D01*
X418935Y190320D01*
X418938Y190420D01*
X418949Y190488D01*
X418949Y192092D01*
X421908Y195051D01*
X426092Y195051D01*
X429051Y192092D01*
X429051Y188016D01*
X429059Y187958D01*
X429057Y187900D01*
X429079Y187818D01*
X429091Y187734D01*
X429114Y187681D01*
X429129Y187625D01*
X429172Y187552D01*
X429207Y187475D01*
X429245Y187430D01*
X429274Y187380D01*
X429336Y187322D01*
X429390Y187258D01*
X429439Y187226D01*
X429482Y187186D01*
X429557Y187147D01*
X429627Y187100D01*
X429683Y187083D01*
X429735Y187056D01*
X429803Y187045D01*
X429898Y187015D01*
X429998Y187012D01*
X430066Y187001D01*
X511427Y187001D01*
X511514Y187013D01*
X511601Y187016D01*
X511654Y187033D01*
X511709Y187041D01*
X511788Y187076D01*
X511872Y187103D01*
X511911Y187131D01*
X511968Y187157D01*
X512081Y187253D01*
X512145Y187298D01*
X516828Y191981D01*
X516880Y192051D01*
X516940Y192115D01*
X516966Y192164D01*
X516999Y192208D01*
X517023Y192272D01*
X517026Y192276D01*
X517030Y192290D01*
X517070Y192368D01*
X517078Y192415D01*
X517100Y192474D01*
X517104Y192524D01*
X517111Y192547D01*
X517113Y192628D01*
X517125Y192699D01*
X517125Y223087D01*
X517113Y223174D01*
X517110Y223261D01*
X517093Y223314D01*
X517085Y223369D01*
X517050Y223449D01*
X517023Y223532D01*
X516995Y223571D01*
X516969Y223628D01*
X516873Y223742D01*
X516828Y223805D01*
X515141Y225492D01*
X515141Y229676D01*
X518100Y232635D01*
X522284Y232635D01*
X525243Y229676D01*
X525243Y225492D01*
X523556Y223805D01*
X523504Y223736D01*
X523444Y223672D01*
X523418Y223622D01*
X523385Y223578D01*
X523354Y223496D01*
X523314Y223418D01*
X523306Y223371D01*
X523284Y223312D01*
X523272Y223165D01*
X523259Y223087D01*
X523259Y189738D01*
X521165Y187644D01*
X517137Y183616D01*
X517119Y183592D01*
X517097Y183573D01*
X517034Y183479D01*
X516966Y183389D01*
X516956Y183361D01*
X516939Y183337D01*
X516905Y183229D01*
X516865Y183123D01*
X516862Y183094D01*
X516853Y183066D01*
X516851Y182952D01*
X516841Y182840D01*
X516847Y182811D01*
X516846Y182782D01*
X516875Y182672D01*
X516897Y182561D01*
X516911Y182535D01*
X516918Y182507D01*
X516976Y182409D01*
X517028Y182309D01*
X517048Y182287D01*
X517063Y182262D01*
X517146Y182185D01*
X517224Y182103D01*
X517249Y182088D01*
X517271Y182068D01*
X517371Y182016D01*
X517469Y181959D01*
X517498Y181952D01*
X517524Y181938D01*
X517601Y181925D01*
X517745Y181889D01*
X517807Y181891D01*
X517855Y181883D01*
X526629Y181883D01*
X526716Y181895D01*
X526803Y181898D01*
X526856Y181915D01*
X526911Y181923D01*
X526990Y181958D01*
X527074Y181985D01*
X527113Y182013D01*
X527170Y182039D01*
X527283Y182135D01*
X527347Y182180D01*
X533084Y187917D01*
X533136Y187987D01*
X533196Y188051D01*
X533222Y188100D01*
X533255Y188144D01*
X533286Y188226D01*
X533326Y188304D01*
X533334Y188351D01*
X533356Y188410D01*
X533361Y188464D01*
X533367Y188486D01*
X533369Y188563D01*
X533381Y188635D01*
X533381Y223087D01*
X533369Y223174D01*
X533366Y223261D01*
X533349Y223314D01*
X533341Y223369D01*
X533306Y223449D01*
X533279Y223532D01*
X533251Y223571D01*
X533225Y223628D01*
X533129Y223742D01*
X533084Y223805D01*
X531397Y225492D01*
X531397Y229676D01*
X534356Y232635D01*
X538540Y232635D01*
X541499Y229676D01*
X541499Y225492D01*
X539812Y223805D01*
X539760Y223736D01*
X539700Y223672D01*
X539674Y223622D01*
X539641Y223578D01*
X539610Y223496D01*
X539570Y223418D01*
X539562Y223371D01*
X539540Y223312D01*
X539528Y223165D01*
X539515Y223087D01*
X539515Y185674D01*
X529590Y175749D01*
X443845Y175749D01*
X443815Y175745D01*
X443786Y175748D01*
X443675Y175725D01*
X443563Y175709D01*
X443536Y175697D01*
X443507Y175692D01*
X443407Y175640D01*
X443304Y175593D01*
X443281Y175574D01*
X443255Y175561D01*
X443173Y175483D01*
X443087Y175410D01*
X443070Y175385D01*
X443049Y175365D01*
X442992Y175267D01*
X442929Y175173D01*
X442920Y175145D01*
X442905Y175120D01*
X442877Y175010D01*
X442843Y174902D01*
X442843Y174873D01*
X442835Y174844D01*
X442839Y174731D01*
X442836Y174618D01*
X442843Y174589D01*
X442844Y174560D01*
X442879Y174452D01*
X442908Y174343D01*
X442923Y174317D01*
X442932Y174289D01*
X442977Y174226D01*
X443051Y174102D01*
X443051Y169908D01*
X440092Y166949D01*
X435908Y166949D01*
G37*
%LPD*%
%LPC*%
G36*
X729908Y272949D02*
X729908Y272949D01*
X726949Y275908D01*
X726949Y280092D01*
X728440Y281583D01*
X728492Y281652D01*
X728552Y281716D01*
X728578Y281766D01*
X728611Y281810D01*
X728642Y281892D01*
X728682Y281969D01*
X728690Y282017D01*
X728712Y282075D01*
X728724Y282223D01*
X728737Y282301D01*
X728737Y427143D01*
X728733Y427172D01*
X728735Y427202D01*
X728713Y427313D01*
X728697Y427425D01*
X728685Y427452D01*
X728680Y427480D01*
X728627Y427581D01*
X728581Y427684D01*
X728562Y427707D01*
X728549Y427733D01*
X728471Y427815D01*
X728397Y427901D01*
X728373Y427918D01*
X728353Y427939D01*
X728255Y427996D01*
X728161Y428059D01*
X728133Y428068D01*
X728108Y428083D01*
X727998Y428110D01*
X727890Y428145D01*
X727860Y428145D01*
X727832Y428153D01*
X727719Y428149D01*
X727606Y428152D01*
X727577Y428145D01*
X727548Y428144D01*
X727440Y428109D01*
X727331Y428080D01*
X727305Y428065D01*
X727277Y428056D01*
X727214Y428011D01*
X727086Y427935D01*
X727043Y427889D01*
X727004Y427861D01*
X724092Y424949D01*
X719908Y424949D01*
X716949Y427908D01*
X716949Y432092D01*
X719908Y435051D01*
X724092Y435051D01*
X727004Y432139D01*
X727027Y432121D01*
X727046Y432099D01*
X727141Y432036D01*
X727231Y431968D01*
X727259Y431957D01*
X727283Y431941D01*
X727391Y431907D01*
X727497Y431867D01*
X727526Y431864D01*
X727554Y431855D01*
X727667Y431852D01*
X727780Y431843D01*
X727809Y431849D01*
X727838Y431848D01*
X727948Y431877D01*
X728059Y431899D01*
X728085Y431912D01*
X728113Y431920D01*
X728211Y431978D01*
X728311Y432030D01*
X728332Y432050D01*
X728358Y432065D01*
X728435Y432148D01*
X728517Y432226D01*
X728532Y432251D01*
X728552Y432272D01*
X728604Y432373D01*
X728661Y432471D01*
X728668Y432499D01*
X728682Y432526D01*
X728695Y432603D01*
X728731Y432747D01*
X728729Y432809D01*
X728737Y432857D01*
X728737Y517074D01*
X752652Y540989D01*
X752704Y541059D01*
X752764Y541123D01*
X752790Y541172D01*
X752823Y541216D01*
X752854Y541298D01*
X752894Y541376D01*
X752902Y541423D01*
X752924Y541482D01*
X752936Y541629D01*
X752949Y541707D01*
X752949Y544092D01*
X755908Y547051D01*
X760092Y547051D01*
X763051Y544092D01*
X763051Y539908D01*
X760092Y536949D01*
X757707Y536949D01*
X757620Y536937D01*
X757533Y536934D01*
X757480Y536917D01*
X757425Y536909D01*
X757346Y536874D01*
X757262Y536847D01*
X757223Y536819D01*
X757166Y536793D01*
X757053Y536697D01*
X756989Y536652D01*
X735168Y514831D01*
X735116Y514761D01*
X735056Y514697D01*
X735030Y514648D01*
X734997Y514604D01*
X734966Y514522D01*
X734926Y514444D01*
X734918Y514397D01*
X734896Y514338D01*
X734884Y514190D01*
X734871Y514113D01*
X734871Y282693D01*
X734883Y282606D01*
X734886Y282519D01*
X734903Y282466D01*
X734910Y282411D01*
X734946Y282331D01*
X734973Y282248D01*
X735001Y282209D01*
X735027Y282152D01*
X735123Y282039D01*
X735168Y281975D01*
X737051Y280092D01*
X737051Y275908D01*
X734092Y272949D01*
X729908Y272949D01*
G37*
%LPD*%
%LPC*%
G36*
X626440Y101369D02*
X626440Y101369D01*
X625993Y101816D01*
X625993Y127588D01*
X626440Y128035D01*
X659196Y128035D01*
X659643Y127588D01*
X659643Y125205D01*
X659644Y125192D01*
X659643Y125180D01*
X659664Y125052D01*
X659683Y124923D01*
X659688Y124912D01*
X659690Y124900D01*
X659746Y124782D01*
X659799Y124664D01*
X659807Y124654D01*
X659812Y124643D01*
X659899Y124546D01*
X659982Y124447D01*
X659993Y124440D01*
X660001Y124431D01*
X660111Y124361D01*
X660219Y124289D01*
X660231Y124285D01*
X660241Y124279D01*
X660367Y124242D01*
X660490Y124203D01*
X660503Y124203D01*
X660514Y124200D01*
X660644Y124199D01*
X660774Y124196D01*
X660786Y124199D01*
X660799Y124199D01*
X660859Y124218D01*
X661049Y124268D01*
X661086Y124290D01*
X661119Y124300D01*
X661307Y124396D01*
X662747Y124864D01*
X662969Y124899D01*
X662969Y116496D01*
X662977Y116438D01*
X662975Y116380D01*
X662997Y116298D01*
X663009Y116215D01*
X663033Y116161D01*
X663047Y116105D01*
X663090Y116032D01*
X663125Y115955D01*
X663163Y115911D01*
X663193Y115860D01*
X663254Y115803D01*
X663309Y115738D01*
X663357Y115706D01*
X663400Y115666D01*
X663475Y115627D01*
X663545Y115581D01*
X663601Y115563D01*
X663653Y115536D01*
X663721Y115525D01*
X663816Y115495D01*
X663916Y115492D01*
X663984Y115481D01*
X665001Y115481D01*
X665001Y115479D01*
X663984Y115479D01*
X663926Y115471D01*
X663868Y115472D01*
X663786Y115451D01*
X663703Y115439D01*
X663649Y115415D01*
X663593Y115401D01*
X663520Y115358D01*
X663443Y115323D01*
X663398Y115285D01*
X663348Y115255D01*
X663290Y115194D01*
X663226Y115139D01*
X663194Y115091D01*
X663154Y115048D01*
X663115Y114973D01*
X663069Y114903D01*
X663051Y114847D01*
X663024Y114795D01*
X663013Y114727D01*
X662983Y114632D01*
X662980Y114532D01*
X662969Y114464D01*
X662969Y106061D01*
X662747Y106096D01*
X661307Y106564D01*
X661119Y106660D01*
X661107Y106664D01*
X661097Y106671D01*
X660973Y106710D01*
X660850Y106752D01*
X660838Y106753D01*
X660826Y106757D01*
X660696Y106760D01*
X660566Y106766D01*
X660554Y106764D01*
X660542Y106764D01*
X660416Y106731D01*
X660289Y106701D01*
X660279Y106695D01*
X660267Y106692D01*
X660155Y106626D01*
X660042Y106562D01*
X660033Y106553D01*
X660022Y106547D01*
X659933Y106452D01*
X659842Y106359D01*
X659836Y106349D01*
X659828Y106340D01*
X659768Y106223D01*
X659707Y106110D01*
X659704Y106097D01*
X659698Y106086D01*
X659688Y106024D01*
X659646Y105832D01*
X659648Y105789D01*
X659643Y105755D01*
X659643Y101816D01*
X659196Y101369D01*
X626440Y101369D01*
G37*
%LPD*%
%LPC*%
G36*
X401908Y296949D02*
X401908Y296949D01*
X398949Y299908D01*
X398949Y302293D01*
X398937Y302380D01*
X398934Y302467D01*
X398917Y302520D01*
X398909Y302575D01*
X398874Y302654D01*
X398847Y302738D01*
X398819Y302777D01*
X398793Y302834D01*
X398697Y302947D01*
X398652Y303011D01*
X375933Y325730D01*
X375933Y416503D01*
X375921Y416590D01*
X375918Y416677D01*
X375901Y416730D01*
X375893Y416785D01*
X375858Y416865D01*
X375831Y416948D01*
X375803Y416987D01*
X375777Y417044D01*
X375681Y417158D01*
X375636Y417221D01*
X373949Y418908D01*
X373949Y423092D01*
X376908Y426051D01*
X381092Y426051D01*
X384051Y423092D01*
X384051Y418908D01*
X382364Y417221D01*
X382312Y417152D01*
X382252Y417088D01*
X382226Y417038D01*
X382193Y416994D01*
X382162Y416912D01*
X382122Y416834D01*
X382114Y416787D01*
X382092Y416728D01*
X382080Y416581D01*
X382067Y416503D01*
X382067Y328691D01*
X382073Y328643D01*
X382073Y328642D01*
X382074Y328639D01*
X382079Y328604D01*
X382082Y328517D01*
X382099Y328464D01*
X382107Y328409D01*
X382142Y328330D01*
X382169Y328246D01*
X382197Y328207D01*
X382223Y328150D01*
X382319Y328037D01*
X382364Y327973D01*
X402989Y307348D01*
X403059Y307296D01*
X403123Y307236D01*
X403172Y307210D01*
X403216Y307177D01*
X403298Y307146D01*
X403376Y307106D01*
X403423Y307098D01*
X403482Y307076D01*
X403629Y307064D01*
X403707Y307051D01*
X406092Y307051D01*
X409051Y304092D01*
X409051Y299908D01*
X406092Y296949D01*
X401908Y296949D01*
G37*
%LPD*%
G36*
X810090Y517254D02*
X810090Y517254D01*
X810181Y517261D01*
X810211Y517273D01*
X810243Y517279D01*
X810323Y517321D01*
X810407Y517357D01*
X810439Y517383D01*
X810460Y517394D01*
X810482Y517417D01*
X810538Y517462D01*
X830038Y536962D01*
X830067Y537002D01*
X830103Y537036D01*
X830139Y537101D01*
X830182Y537161D01*
X830196Y537209D01*
X830220Y537252D01*
X830247Y537373D01*
X830254Y537397D01*
X830254Y537404D01*
X830257Y537416D01*
X831201Y545916D01*
X831198Y545978D01*
X831205Y546039D01*
X831192Y546100D01*
X831188Y546162D01*
X831166Y546219D01*
X831152Y546280D01*
X831121Y546333D01*
X831098Y546390D01*
X831058Y546438D01*
X831026Y546491D01*
X830979Y546531D01*
X830939Y546578D01*
X830886Y546611D01*
X830839Y546651D01*
X830782Y546674D01*
X830729Y546706D01*
X830669Y546720D01*
X830611Y546743D01*
X830521Y546753D01*
X830489Y546760D01*
X830472Y546758D01*
X830444Y546761D01*
X820000Y546761D01*
X819910Y546747D01*
X819819Y546739D01*
X819789Y546727D01*
X819757Y546722D01*
X819677Y546679D01*
X819593Y546643D01*
X819561Y546617D01*
X819540Y546606D01*
X819518Y546583D01*
X819462Y546538D01*
X805685Y532761D01*
X789592Y532761D01*
X789563Y532756D01*
X789533Y532759D01*
X789442Y532737D01*
X789349Y532722D01*
X789323Y532708D01*
X789294Y532701D01*
X789215Y532650D01*
X789132Y532606D01*
X789111Y532585D01*
X789086Y532569D01*
X789027Y532496D01*
X788962Y532428D01*
X788950Y532401D01*
X788931Y532378D01*
X788898Y532290D01*
X788859Y532205D01*
X788855Y532176D01*
X788845Y532148D01*
X788831Y531981D01*
X789188Y517981D01*
X789190Y517971D01*
X789189Y517961D01*
X789213Y517850D01*
X789234Y517739D01*
X789239Y517730D01*
X789241Y517720D01*
X789299Y517623D01*
X789354Y517525D01*
X789362Y517518D01*
X789367Y517509D01*
X789453Y517435D01*
X789537Y517360D01*
X789546Y517356D01*
X789554Y517349D01*
X789659Y517307D01*
X789763Y517262D01*
X789773Y517261D01*
X789782Y517257D01*
X789949Y517239D01*
X810000Y517239D01*
X810090Y517254D01*
G37*
%LPC*%
G36*
X1163654Y721179D02*
X1163654Y721179D01*
X1158766Y723204D01*
X1155024Y726946D01*
X1152999Y731834D01*
X1152999Y737126D01*
X1155024Y742014D01*
X1158766Y745756D01*
X1163654Y747781D01*
X1168946Y747781D01*
X1173834Y745756D01*
X1177576Y742014D01*
X1179601Y737126D01*
X1179601Y731834D01*
X1177576Y726946D01*
X1173834Y723204D01*
X1168946Y721179D01*
X1163654Y721179D01*
G37*
%LPD*%
%LPC*%
G36*
X1090654Y721179D02*
X1090654Y721179D01*
X1085766Y723204D01*
X1082024Y726946D01*
X1079999Y731834D01*
X1079999Y737126D01*
X1082024Y742014D01*
X1085766Y745756D01*
X1090654Y747781D01*
X1095946Y747781D01*
X1100834Y745756D01*
X1104576Y742014D01*
X1106601Y737126D01*
X1106601Y731834D01*
X1104576Y726946D01*
X1100834Y723204D01*
X1095946Y721179D01*
X1090654Y721179D01*
G37*
%LPD*%
%LPC*%
G36*
X953079Y623234D02*
X953079Y623234D01*
X945554Y630759D01*
X945554Y641401D01*
X953079Y648926D01*
X963721Y648926D01*
X971246Y641401D01*
X971246Y630759D01*
X963721Y623234D01*
X953079Y623234D01*
G37*
%LPD*%
%LPC*%
G36*
X891939Y544074D02*
X891939Y544074D01*
X884414Y551599D01*
X884414Y562241D01*
X891939Y569766D01*
X902581Y569766D01*
X910106Y562241D01*
X910106Y551599D01*
X902581Y544074D01*
X891939Y544074D01*
G37*
%LPD*%
%LPC*%
G36*
X648679Y26090D02*
X648679Y26090D01*
X641154Y33615D01*
X641154Y44257D01*
X648679Y51782D01*
X659321Y51782D01*
X666846Y44257D01*
X666846Y33615D01*
X659321Y26090D01*
X648679Y26090D01*
G37*
%LPD*%
G36*
X792090Y379254D02*
X792090Y379254D01*
X792181Y379261D01*
X792211Y379273D01*
X792243Y379279D01*
X792323Y379321D01*
X792407Y379357D01*
X792439Y379383D01*
X792460Y379394D01*
X792482Y379417D01*
X792538Y379462D01*
X796538Y383462D01*
X796591Y383536D01*
X796651Y383605D01*
X796663Y383635D01*
X796682Y383661D01*
X796709Y383748D01*
X796743Y383833D01*
X796747Y383874D01*
X796754Y383897D01*
X796753Y383929D01*
X796761Y384000D01*
X796761Y400000D01*
X796747Y400090D01*
X796739Y400181D01*
X796727Y400211D01*
X796722Y400243D01*
X796679Y400323D01*
X796643Y400407D01*
X796617Y400439D01*
X796606Y400460D01*
X796583Y400482D01*
X796538Y400538D01*
X792538Y404538D01*
X792464Y404591D01*
X792395Y404651D01*
X792365Y404663D01*
X792339Y404682D01*
X792252Y404709D01*
X792167Y404743D01*
X792126Y404747D01*
X792103Y404754D01*
X792071Y404753D01*
X792000Y404761D01*
X786000Y404761D01*
X785910Y404747D01*
X785819Y404739D01*
X785789Y404727D01*
X785757Y404722D01*
X785677Y404679D01*
X785593Y404643D01*
X785561Y404617D01*
X785540Y404606D01*
X785518Y404583D01*
X785462Y404538D01*
X771462Y390538D01*
X771409Y390464D01*
X771349Y390395D01*
X771337Y390365D01*
X771318Y390339D01*
X771291Y390252D01*
X771257Y390167D01*
X771253Y390126D01*
X771246Y390103D01*
X771247Y390071D01*
X771239Y390000D01*
X771239Y384000D01*
X771254Y383910D01*
X771261Y383819D01*
X771273Y383789D01*
X771279Y383757D01*
X771321Y383677D01*
X771357Y383593D01*
X771383Y383561D01*
X771394Y383540D01*
X771417Y383518D01*
X771462Y383462D01*
X775462Y379462D01*
X775536Y379409D01*
X775605Y379349D01*
X775635Y379337D01*
X775661Y379318D01*
X775748Y379291D01*
X775833Y379257D01*
X775874Y379253D01*
X775897Y379246D01*
X775929Y379247D01*
X776000Y379239D01*
X792000Y379239D01*
X792090Y379254D01*
G37*
%LPC*%
G36*
X365447Y749983D02*
X365447Y749983D01*
X361588Y751582D01*
X358634Y754536D01*
X357035Y758395D01*
X357035Y762573D01*
X358634Y766432D01*
X361588Y769386D01*
X365447Y770985D01*
X369625Y770985D01*
X373484Y769386D01*
X376438Y766432D01*
X378037Y762573D01*
X378037Y758395D01*
X376438Y754536D01*
X373484Y751582D01*
X369625Y749983D01*
X365447Y749983D01*
G37*
%LPD*%
%LPC*%
G36*
X865447Y749983D02*
X865447Y749983D01*
X861588Y751582D01*
X858634Y754536D01*
X857035Y758395D01*
X857035Y762573D01*
X858634Y766432D01*
X861588Y769386D01*
X865447Y770985D01*
X869625Y770985D01*
X873484Y769386D01*
X876438Y766432D01*
X878037Y762573D01*
X878037Y758395D01*
X876438Y754536D01*
X873484Y751582D01*
X869625Y749983D01*
X865447Y749983D01*
G37*
%LPD*%
%LPC*%
G36*
X490447Y749983D02*
X490447Y749983D01*
X486588Y751582D01*
X483634Y754536D01*
X482035Y758395D01*
X482035Y762573D01*
X483634Y766432D01*
X486588Y769386D01*
X490447Y770985D01*
X494625Y770985D01*
X498484Y769386D01*
X501438Y766432D01*
X503037Y762573D01*
X503037Y758395D01*
X501438Y754536D01*
X498484Y751582D01*
X494625Y749983D01*
X490447Y749983D01*
G37*
%LPD*%
%LPC*%
G36*
X740447Y749983D02*
X740447Y749983D01*
X736588Y751582D01*
X733634Y754536D01*
X732035Y758395D01*
X732035Y762573D01*
X733634Y766432D01*
X736588Y769386D01*
X740447Y770985D01*
X744625Y770985D01*
X748484Y769386D01*
X751438Y766432D01*
X753037Y762573D01*
X753037Y758395D01*
X751438Y754536D01*
X748484Y751582D01*
X744625Y749983D01*
X740447Y749983D01*
G37*
%LPD*%
%LPC*%
G36*
X615447Y749983D02*
X615447Y749983D01*
X611588Y751582D01*
X608634Y754536D01*
X607035Y758395D01*
X607035Y762573D01*
X608634Y766432D01*
X611588Y769386D01*
X615447Y770985D01*
X619625Y770985D01*
X623484Y769386D01*
X626438Y766432D01*
X628037Y762573D01*
X628037Y758395D01*
X626438Y754536D01*
X623484Y751582D01*
X619625Y749983D01*
X615447Y749983D01*
G37*
%LPD*%
%LPC*%
G36*
X240447Y749983D02*
X240447Y749983D01*
X236588Y751582D01*
X233634Y754536D01*
X232035Y758395D01*
X232035Y762573D01*
X233634Y766432D01*
X236588Y769386D01*
X240447Y770985D01*
X244625Y770985D01*
X248484Y769386D01*
X251438Y766432D01*
X253037Y762573D01*
X253037Y758395D01*
X251438Y754536D01*
X248484Y751582D01*
X244625Y749983D01*
X240447Y749983D01*
G37*
%LPD*%
%LPC*%
G36*
X115447Y749983D02*
X115447Y749983D01*
X111588Y751582D01*
X108634Y754536D01*
X107035Y758395D01*
X107035Y762573D01*
X108634Y766432D01*
X111588Y769386D01*
X115447Y770985D01*
X119625Y770985D01*
X123484Y769386D01*
X126438Y766432D01*
X128037Y762573D01*
X128037Y758395D01*
X126438Y754536D01*
X123484Y751582D01*
X119625Y749983D01*
X115447Y749983D01*
G37*
%LPD*%
%LPC*%
G36*
X490447Y679983D02*
X490447Y679983D01*
X486588Y681582D01*
X483634Y684536D01*
X482035Y688395D01*
X482035Y692573D01*
X483634Y696432D01*
X486588Y699386D01*
X490447Y700985D01*
X494625Y700985D01*
X498484Y699386D01*
X501438Y696432D01*
X503037Y692573D01*
X503037Y688395D01*
X501438Y684536D01*
X498484Y681582D01*
X494625Y679983D01*
X490447Y679983D01*
G37*
%LPD*%
%LPC*%
G36*
X740447Y679983D02*
X740447Y679983D01*
X736588Y681582D01*
X733634Y684536D01*
X732035Y688395D01*
X732035Y692573D01*
X733634Y696432D01*
X736588Y699386D01*
X740447Y700985D01*
X744625Y700985D01*
X748484Y699386D01*
X751438Y696432D01*
X753037Y692573D01*
X753037Y688395D01*
X751438Y684536D01*
X748484Y681582D01*
X744625Y679983D01*
X740447Y679983D01*
G37*
%LPD*%
%LPC*%
G36*
X240447Y679983D02*
X240447Y679983D01*
X236588Y681582D01*
X233634Y684536D01*
X232035Y688395D01*
X232035Y692573D01*
X233634Y696432D01*
X236588Y699386D01*
X240447Y700985D01*
X244625Y700985D01*
X248484Y699386D01*
X251438Y696432D01*
X253037Y692573D01*
X253037Y688395D01*
X251438Y684536D01*
X248484Y681582D01*
X244625Y679983D01*
X240447Y679983D01*
G37*
%LPD*%
%LPC*%
G36*
X115447Y679983D02*
X115447Y679983D01*
X111588Y681582D01*
X108634Y684536D01*
X107035Y688395D01*
X107035Y692573D01*
X108634Y696432D01*
X111588Y699386D01*
X115447Y700985D01*
X119625Y700985D01*
X123484Y699386D01*
X126438Y696432D01*
X128037Y692573D01*
X128037Y688395D01*
X126438Y684536D01*
X123484Y681582D01*
X119625Y679983D01*
X115447Y679983D01*
G37*
%LPD*%
%LPC*%
G36*
X365447Y679983D02*
X365447Y679983D01*
X361588Y681582D01*
X358634Y684536D01*
X357035Y688395D01*
X357035Y692573D01*
X358634Y696432D01*
X361588Y699386D01*
X365447Y700985D01*
X369625Y700985D01*
X373484Y699386D01*
X376438Y696432D01*
X378037Y692573D01*
X378037Y688395D01*
X376438Y684536D01*
X373484Y681582D01*
X369625Y679983D01*
X365447Y679983D01*
G37*
%LPD*%
%LPC*%
G36*
X615447Y679983D02*
X615447Y679983D01*
X611588Y681582D01*
X608634Y684536D01*
X607035Y688395D01*
X607035Y692573D01*
X608634Y696432D01*
X611588Y699386D01*
X615447Y700985D01*
X619625Y700985D01*
X623484Y699386D01*
X626438Y696432D01*
X628037Y692573D01*
X628037Y688395D01*
X626438Y684536D01*
X623484Y681582D01*
X619625Y679983D01*
X615447Y679983D01*
G37*
%LPD*%
%LPC*%
G36*
X865447Y679983D02*
X865447Y679983D01*
X861588Y681582D01*
X858634Y684536D01*
X857035Y688395D01*
X857035Y692573D01*
X858634Y696432D01*
X861588Y699386D01*
X865447Y700985D01*
X869625Y700985D01*
X873484Y699386D01*
X876438Y696432D01*
X878037Y692573D01*
X878037Y688395D01*
X876438Y684536D01*
X873484Y681582D01*
X869625Y679983D01*
X865447Y679983D01*
G37*
%LPD*%
%LPC*%
G36*
X954436Y527793D02*
X954436Y527793D01*
X951441Y529034D01*
X949150Y531325D01*
X947909Y534320D01*
X947909Y537560D01*
X949150Y540555D01*
X951441Y542846D01*
X954436Y544087D01*
X957676Y544087D01*
X960671Y542846D01*
X962962Y540555D01*
X964203Y537560D01*
X964203Y534320D01*
X962962Y531325D01*
X960671Y529034D01*
X957676Y527793D01*
X954436Y527793D01*
G37*
%LPD*%
%LPC*%
G36*
X1145808Y746979D02*
X1145808Y746979D01*
X1143051Y748121D01*
X1140941Y750231D01*
X1139799Y752988D01*
X1139799Y755972D01*
X1140941Y758729D01*
X1143051Y760839D01*
X1145808Y761981D01*
X1148792Y761981D01*
X1151549Y760839D01*
X1153659Y758729D01*
X1154801Y755972D01*
X1154801Y752988D01*
X1153659Y750231D01*
X1151549Y748121D01*
X1148792Y746979D01*
X1145808Y746979D01*
G37*
%LPD*%
%LPC*%
G36*
X1110808Y746979D02*
X1110808Y746979D01*
X1108051Y748121D01*
X1105941Y750231D01*
X1104799Y752988D01*
X1104799Y755972D01*
X1105941Y758729D01*
X1108051Y760839D01*
X1110808Y761981D01*
X1113792Y761981D01*
X1116549Y760839D01*
X1118659Y758729D01*
X1119801Y755972D01*
X1119801Y752988D01*
X1118659Y750231D01*
X1116549Y748121D01*
X1113792Y746979D01*
X1110808Y746979D01*
G37*
%LPD*%
%LPC*%
G36*
X1117908Y347949D02*
X1117908Y347949D01*
X1114949Y350908D01*
X1114949Y355092D01*
X1117073Y357216D01*
X1117091Y357240D01*
X1117113Y357259D01*
X1117176Y357353D01*
X1117244Y357443D01*
X1117255Y357471D01*
X1117271Y357495D01*
X1117305Y357603D01*
X1117345Y357709D01*
X1117348Y357738D01*
X1117357Y357766D01*
X1117360Y357880D01*
X1117369Y357992D01*
X1117363Y358021D01*
X1117364Y358050D01*
X1117335Y358160D01*
X1117313Y358271D01*
X1117300Y358297D01*
X1117292Y358325D01*
X1117234Y358423D01*
X1117182Y358523D01*
X1117162Y358545D01*
X1117147Y358570D01*
X1117064Y358647D01*
X1116986Y358729D01*
X1116961Y358744D01*
X1116940Y358764D01*
X1116839Y358816D01*
X1116741Y358873D01*
X1116713Y358880D01*
X1116687Y358894D01*
X1116609Y358907D01*
X1116466Y358943D01*
X1116403Y358941D01*
X1116355Y358949D01*
X1114908Y358949D01*
X1111949Y361908D01*
X1111949Y366092D01*
X1114908Y369051D01*
X1119092Y369051D01*
X1122051Y366092D01*
X1122051Y361908D01*
X1119927Y359784D01*
X1119909Y359760D01*
X1119887Y359741D01*
X1119824Y359647D01*
X1119756Y359557D01*
X1119745Y359529D01*
X1119729Y359505D01*
X1119695Y359397D01*
X1119655Y359291D01*
X1119652Y359262D01*
X1119643Y359234D01*
X1119640Y359120D01*
X1119631Y359008D01*
X1119637Y358979D01*
X1119636Y358950D01*
X1119665Y358840D01*
X1119687Y358729D01*
X1119700Y358703D01*
X1119708Y358675D01*
X1119766Y358577D01*
X1119818Y358477D01*
X1119838Y358455D01*
X1119853Y358430D01*
X1119936Y358353D01*
X1120014Y358271D01*
X1120039Y358256D01*
X1120060Y358236D01*
X1120161Y358184D01*
X1120259Y358127D01*
X1120287Y358120D01*
X1120313Y358106D01*
X1120391Y358093D01*
X1120534Y358057D01*
X1120597Y358059D01*
X1120645Y358051D01*
X1122092Y358051D01*
X1125051Y355092D01*
X1125051Y350908D01*
X1122092Y347949D01*
X1117908Y347949D01*
G37*
%LPD*%
%LPC*%
G36*
X769908Y474949D02*
X769908Y474949D01*
X766949Y477908D01*
X766949Y482092D01*
X769908Y485051D01*
X774092Y485051D01*
X776282Y482861D01*
X776329Y482826D01*
X776369Y482783D01*
X776442Y482740D01*
X776509Y482690D01*
X776564Y482669D01*
X776614Y482639D01*
X776696Y482619D01*
X776775Y482589D01*
X776833Y482584D01*
X776890Y482569D01*
X776974Y482572D01*
X777058Y482565D01*
X777116Y482577D01*
X777174Y482578D01*
X777254Y482604D01*
X777337Y482621D01*
X777389Y482648D01*
X777445Y482666D01*
X777501Y482706D01*
X777589Y482752D01*
X777662Y482821D01*
X777718Y482861D01*
X779908Y485051D01*
X784092Y485051D01*
X787051Y482092D01*
X787051Y477908D01*
X784092Y474949D01*
X779908Y474949D01*
X777718Y477139D01*
X777671Y477174D01*
X777631Y477217D01*
X777558Y477260D01*
X777491Y477310D01*
X777436Y477331D01*
X777386Y477361D01*
X777304Y477381D01*
X777225Y477411D01*
X777167Y477416D01*
X777110Y477431D01*
X777026Y477428D01*
X776942Y477435D01*
X776884Y477423D01*
X776826Y477422D01*
X776746Y477396D01*
X776663Y477379D01*
X776611Y477352D01*
X776555Y477334D01*
X776499Y477294D01*
X776411Y477248D01*
X776338Y477179D01*
X776282Y477139D01*
X774092Y474949D01*
X769908Y474949D01*
G37*
%LPD*%
%LPC*%
G36*
X759908Y408949D02*
X759908Y408949D01*
X756949Y411908D01*
X756949Y416092D01*
X759075Y418218D01*
X759110Y418265D01*
X759153Y418305D01*
X759196Y418378D01*
X759246Y418445D01*
X759267Y418500D01*
X759297Y418550D01*
X759317Y418632D01*
X759347Y418711D01*
X759352Y418769D01*
X759367Y418826D01*
X759364Y418910D01*
X759371Y418994D01*
X759359Y419052D01*
X759358Y419110D01*
X759332Y419190D01*
X759315Y419273D01*
X759288Y419325D01*
X759270Y419381D01*
X759230Y419437D01*
X759184Y419525D01*
X759115Y419598D01*
X759075Y419654D01*
X756885Y421844D01*
X756885Y426028D01*
X759844Y428987D01*
X764028Y428987D01*
X766987Y426028D01*
X766987Y421844D01*
X764861Y419718D01*
X764826Y419671D01*
X764783Y419631D01*
X764740Y419558D01*
X764690Y419491D01*
X764669Y419436D01*
X764639Y419386D01*
X764619Y419304D01*
X764589Y419225D01*
X764584Y419167D01*
X764569Y419110D01*
X764572Y419026D01*
X764565Y418942D01*
X764577Y418884D01*
X764578Y418826D01*
X764604Y418746D01*
X764621Y418663D01*
X764648Y418611D01*
X764666Y418555D01*
X764706Y418499D01*
X764752Y418411D01*
X764821Y418338D01*
X764861Y418282D01*
X767051Y416092D01*
X767051Y411908D01*
X764092Y408949D01*
X759908Y408949D01*
G37*
%LPD*%
%LPC*%
G36*
X558740Y234725D02*
X558740Y234725D01*
X555781Y237684D01*
X555781Y241868D01*
X558740Y244827D01*
X558830Y244827D01*
X558888Y244835D01*
X558946Y244833D01*
X559028Y244855D01*
X559112Y244867D01*
X559165Y244890D01*
X559221Y244905D01*
X559294Y244948D01*
X559371Y244983D01*
X559416Y245021D01*
X559466Y245050D01*
X559524Y245112D01*
X559588Y245166D01*
X559620Y245215D01*
X559660Y245258D01*
X559699Y245333D01*
X559746Y245403D01*
X559763Y245459D01*
X559790Y245511D01*
X559801Y245579D01*
X559831Y245674D01*
X559834Y245774D01*
X559845Y245842D01*
X559845Y249996D01*
X562804Y252955D01*
X566988Y252955D01*
X569947Y249996D01*
X569947Y245812D01*
X566988Y242853D01*
X566898Y242853D01*
X566840Y242845D01*
X566782Y242847D01*
X566700Y242825D01*
X566616Y242813D01*
X566563Y242790D01*
X566507Y242775D01*
X566434Y242732D01*
X566357Y242697D01*
X566312Y242659D01*
X566262Y242630D01*
X566204Y242568D01*
X566140Y242514D01*
X566108Y242465D01*
X566068Y242422D01*
X566029Y242347D01*
X565982Y242277D01*
X565965Y242221D01*
X565938Y242169D01*
X565927Y242101D01*
X565897Y242006D01*
X565894Y241906D01*
X565883Y241838D01*
X565883Y237684D01*
X562924Y234725D01*
X558740Y234725D01*
G37*
%LPD*%
%LPC*%
G36*
X413960Y236249D02*
X413960Y236249D01*
X411001Y239208D01*
X411001Y239298D01*
X410993Y239356D01*
X410995Y239414D01*
X410973Y239496D01*
X410961Y239580D01*
X410938Y239633D01*
X410923Y239689D01*
X410880Y239762D01*
X410845Y239839D01*
X410807Y239884D01*
X410778Y239934D01*
X410716Y239992D01*
X410662Y240056D01*
X410613Y240088D01*
X410570Y240128D01*
X410495Y240167D01*
X410425Y240214D01*
X410369Y240231D01*
X410317Y240258D01*
X410249Y240269D01*
X410154Y240299D01*
X410054Y240302D01*
X409986Y240313D01*
X405832Y240313D01*
X402873Y243272D01*
X402873Y247456D01*
X405832Y250415D01*
X410016Y250415D01*
X412975Y247456D01*
X412975Y247366D01*
X412983Y247308D01*
X412981Y247250D01*
X413003Y247168D01*
X413015Y247084D01*
X413038Y247031D01*
X413053Y246975D01*
X413096Y246902D01*
X413131Y246825D01*
X413169Y246780D01*
X413198Y246730D01*
X413260Y246672D01*
X413314Y246608D01*
X413363Y246576D01*
X413406Y246536D01*
X413481Y246497D01*
X413551Y246450D01*
X413607Y246433D01*
X413659Y246406D01*
X413727Y246395D01*
X413822Y246365D01*
X413922Y246362D01*
X413990Y246351D01*
X418144Y246351D01*
X421103Y243392D01*
X421103Y239208D01*
X418144Y236249D01*
X413960Y236249D01*
G37*
%LPD*%
%LPC*%
G36*
X1012908Y538949D02*
X1012908Y538949D01*
X1009949Y541908D01*
X1009949Y546092D01*
X1012908Y549051D01*
X1017092Y549051D01*
X1018782Y547361D01*
X1018829Y547326D01*
X1018869Y547283D01*
X1018942Y547240D01*
X1019009Y547190D01*
X1019064Y547169D01*
X1019114Y547139D01*
X1019196Y547119D01*
X1019275Y547089D01*
X1019333Y547084D01*
X1019390Y547069D01*
X1019474Y547072D01*
X1019558Y547065D01*
X1019616Y547077D01*
X1019674Y547078D01*
X1019754Y547104D01*
X1019837Y547121D01*
X1019889Y547148D01*
X1019945Y547166D01*
X1020001Y547206D01*
X1020089Y547252D01*
X1020162Y547321D01*
X1020218Y547361D01*
X1021908Y549051D01*
X1026092Y549051D01*
X1029051Y546092D01*
X1029051Y541908D01*
X1026092Y538949D01*
X1021908Y538949D01*
X1020218Y540639D01*
X1020171Y540674D01*
X1020131Y540717D01*
X1020058Y540760D01*
X1019991Y540810D01*
X1019936Y540831D01*
X1019886Y540861D01*
X1019804Y540881D01*
X1019725Y540911D01*
X1019667Y540916D01*
X1019610Y540931D01*
X1019526Y540928D01*
X1019442Y540935D01*
X1019384Y540923D01*
X1019326Y540922D01*
X1019246Y540896D01*
X1019163Y540879D01*
X1019111Y540852D01*
X1019055Y540834D01*
X1018999Y540794D01*
X1018911Y540748D01*
X1018838Y540679D01*
X1018782Y540639D01*
X1017092Y538949D01*
X1012908Y538949D01*
G37*
%LPD*%
%LPC*%
G36*
X1065751Y371111D02*
X1065751Y371111D01*
X1065751Y381876D01*
X1069020Y381876D01*
X1076516Y374380D01*
X1076516Y371111D01*
X1065751Y371111D01*
G37*
%LPD*%
%LPC*%
G36*
X191711Y436111D02*
X191711Y436111D01*
X191711Y446876D01*
X194980Y446876D01*
X202476Y439380D01*
X202476Y436111D01*
X191711Y436111D01*
G37*
%LPD*%
%LPC*%
G36*
X176884Y436111D02*
X176884Y436111D01*
X176884Y439380D01*
X184380Y446876D01*
X187649Y446876D01*
X187649Y436111D01*
X176884Y436111D01*
G37*
%LPD*%
%LPC*%
G36*
X1050924Y371111D02*
X1050924Y371111D01*
X1050924Y374380D01*
X1058420Y381876D01*
X1061689Y381876D01*
X1061689Y371111D01*
X1050924Y371111D01*
G37*
%LPD*%
%LPC*%
G36*
X1065751Y356284D02*
X1065751Y356284D01*
X1065751Y367049D01*
X1076516Y367049D01*
X1076516Y363780D01*
X1069020Y356284D01*
X1065751Y356284D01*
G37*
%LPD*%
%LPC*%
G36*
X191711Y421284D02*
X191711Y421284D01*
X191711Y432049D01*
X202476Y432049D01*
X202476Y428780D01*
X194980Y421284D01*
X191711Y421284D01*
G37*
%LPD*%
%LPC*%
G36*
X1058420Y356284D02*
X1058420Y356284D01*
X1050924Y363780D01*
X1050924Y367049D01*
X1061689Y367049D01*
X1061689Y356284D01*
X1058420Y356284D01*
G37*
%LPD*%
%LPC*%
G36*
X184380Y421284D02*
X184380Y421284D01*
X176884Y428780D01*
X176884Y432049D01*
X187649Y432049D01*
X187649Y421284D01*
X184380Y421284D01*
G37*
%LPD*%
%LPC*%
G36*
X459908Y512949D02*
X459908Y512949D01*
X456949Y515908D01*
X456949Y520092D01*
X459908Y523051D01*
X464092Y523051D01*
X467051Y520092D01*
X467051Y515908D01*
X464092Y512949D01*
X459908Y512949D01*
G37*
%LPD*%
%LPC*%
G36*
X375908Y510949D02*
X375908Y510949D01*
X372949Y513908D01*
X372949Y518092D01*
X375908Y521051D01*
X380092Y521051D01*
X383051Y518092D01*
X383051Y513908D01*
X380092Y510949D01*
X375908Y510949D01*
G37*
%LPD*%
%LPC*%
G36*
X282908Y475949D02*
X282908Y475949D01*
X279949Y478908D01*
X279949Y483092D01*
X282908Y486051D01*
X287092Y486051D01*
X290051Y483092D01*
X290051Y478908D01*
X287092Y475949D01*
X282908Y475949D01*
G37*
%LPD*%
%LPC*%
G36*
X305908Y474949D02*
X305908Y474949D01*
X302949Y477908D01*
X302949Y482092D01*
X305908Y485051D01*
X310092Y485051D01*
X313051Y482092D01*
X313051Y477908D01*
X310092Y474949D01*
X305908Y474949D01*
G37*
%LPD*%
%LPC*%
G36*
X491908Y462949D02*
X491908Y462949D01*
X488949Y465908D01*
X488949Y470092D01*
X491908Y473051D01*
X496092Y473051D01*
X499051Y470092D01*
X499051Y465908D01*
X496092Y462949D01*
X491908Y462949D01*
G37*
%LPD*%
%LPC*%
G36*
X271908Y460949D02*
X271908Y460949D01*
X268949Y463908D01*
X268949Y468092D01*
X271908Y471051D01*
X276092Y471051D01*
X279051Y468092D01*
X279051Y463908D01*
X276092Y460949D01*
X271908Y460949D01*
G37*
%LPD*%
%LPC*%
G36*
X409908Y460949D02*
X409908Y460949D01*
X406949Y463908D01*
X406949Y468092D01*
X409908Y471051D01*
X414092Y471051D01*
X417051Y468092D01*
X417051Y463908D01*
X414092Y460949D01*
X409908Y460949D01*
G37*
%LPD*%
%LPC*%
G36*
X591908Y456949D02*
X591908Y456949D01*
X588949Y459908D01*
X588949Y464092D01*
X591908Y467051D01*
X596092Y467051D01*
X599051Y464092D01*
X599051Y459908D01*
X596092Y456949D01*
X591908Y456949D01*
G37*
%LPD*%
%LPC*%
G36*
X663908Y446949D02*
X663908Y446949D01*
X660949Y449908D01*
X660949Y454092D01*
X663908Y457051D01*
X668092Y457051D01*
X671051Y454092D01*
X671051Y449908D01*
X668092Y446949D01*
X663908Y446949D01*
G37*
%LPD*%
%LPC*%
G36*
X963980Y431749D02*
X963980Y431749D01*
X961021Y434708D01*
X961021Y438892D01*
X963980Y441851D01*
X968164Y441851D01*
X971123Y438892D01*
X971123Y434708D01*
X968164Y431749D01*
X963980Y431749D01*
G37*
%LPD*%
%LPC*%
G36*
X269908Y425949D02*
X269908Y425949D01*
X266949Y428908D01*
X266949Y433092D01*
X269908Y436051D01*
X274092Y436051D01*
X277051Y433092D01*
X277051Y428908D01*
X274092Y425949D01*
X269908Y425949D01*
G37*
%LPD*%
%LPC*%
G36*
X843908Y425949D02*
X843908Y425949D01*
X840949Y428908D01*
X840949Y433092D01*
X843908Y436051D01*
X848092Y436051D01*
X851051Y433092D01*
X851051Y428908D01*
X848092Y425949D01*
X843908Y425949D01*
G37*
%LPD*%
%LPC*%
G36*
X448268Y417229D02*
X448268Y417229D01*
X445309Y420188D01*
X445309Y424372D01*
X448268Y427331D01*
X452452Y427331D01*
X455411Y424372D01*
X455411Y420188D01*
X452452Y417229D01*
X448268Y417229D01*
G37*
%LPD*%
%LPC*%
G36*
X649908Y411949D02*
X649908Y411949D01*
X646949Y414908D01*
X646949Y419092D01*
X649908Y422051D01*
X654092Y422051D01*
X657051Y419092D01*
X657051Y414908D01*
X654092Y411949D01*
X649908Y411949D01*
G37*
%LPD*%
%LPC*%
G36*
X599908Y384949D02*
X599908Y384949D01*
X596949Y387908D01*
X596949Y392092D01*
X599908Y395051D01*
X604092Y395051D01*
X607051Y392092D01*
X607051Y387908D01*
X604092Y384949D01*
X599908Y384949D01*
G37*
%LPD*%
%LPC*%
G36*
X328908Y383269D02*
X328908Y383269D01*
X325949Y386228D01*
X325949Y390412D01*
X328908Y393371D01*
X333092Y393371D01*
X336051Y390412D01*
X336051Y386228D01*
X333092Y383269D01*
X328908Y383269D01*
G37*
%LPD*%
%LPC*%
G36*
X463908Y383269D02*
X463908Y383269D01*
X460949Y386228D01*
X460949Y390412D01*
X463908Y393371D01*
X468092Y393371D01*
X471051Y390412D01*
X471051Y386228D01*
X468092Y383269D01*
X463908Y383269D01*
G37*
%LPD*%
%LPC*%
G36*
X425908Y383269D02*
X425908Y383269D01*
X422949Y386228D01*
X422949Y390412D01*
X425908Y393371D01*
X430092Y393371D01*
X433051Y390412D01*
X433051Y386228D01*
X430092Y383269D01*
X425908Y383269D01*
G37*
%LPD*%
%LPC*%
G36*
X1027672Y698397D02*
X1027672Y698397D01*
X1024713Y701356D01*
X1024713Y705540D01*
X1027672Y708499D01*
X1031856Y708499D01*
X1034815Y705540D01*
X1034815Y701356D01*
X1031856Y698397D01*
X1027672Y698397D01*
G37*
%LPD*%
%LPC*%
G36*
X541908Y382949D02*
X541908Y382949D01*
X538949Y385908D01*
X538949Y390092D01*
X541908Y393051D01*
X546092Y393051D01*
X549051Y390092D01*
X549051Y385908D01*
X546092Y382949D01*
X541908Y382949D01*
G37*
%LPD*%
%LPC*%
G36*
X301908Y382949D02*
X301908Y382949D01*
X298949Y385908D01*
X298949Y390092D01*
X301908Y393051D01*
X306092Y393051D01*
X309051Y390092D01*
X309051Y385908D01*
X306092Y382949D01*
X301908Y382949D01*
G37*
%LPD*%
%LPC*%
G36*
X881908Y373949D02*
X881908Y373949D01*
X878949Y376908D01*
X878949Y381092D01*
X881908Y384051D01*
X886092Y384051D01*
X889051Y381092D01*
X889051Y376908D01*
X886092Y373949D01*
X881908Y373949D01*
G37*
%LPD*%
%LPC*%
G36*
X964668Y593169D02*
X964668Y593169D01*
X961709Y596128D01*
X961709Y600312D01*
X964668Y603271D01*
X968852Y603271D01*
X971811Y600312D01*
X971811Y596128D01*
X968852Y593169D01*
X964668Y593169D01*
G37*
%LPD*%
%LPC*%
G36*
X1181548Y592357D02*
X1181548Y592357D01*
X1178589Y595316D01*
X1178589Y599500D01*
X1181548Y602459D01*
X1185732Y602459D01*
X1188691Y599500D01*
X1188691Y595316D01*
X1185732Y592357D01*
X1181548Y592357D01*
G37*
%LPD*%
%LPC*%
G36*
X453908Y369949D02*
X453908Y369949D01*
X450949Y372908D01*
X450949Y377092D01*
X453908Y380051D01*
X458092Y380051D01*
X461051Y377092D01*
X461051Y372908D01*
X458092Y369949D01*
X453908Y369949D01*
G37*
%LPD*%
%LPC*%
G36*
X823972Y369949D02*
X823972Y369949D01*
X821013Y372908D01*
X821013Y377092D01*
X823972Y380051D01*
X828156Y380051D01*
X831115Y377092D01*
X831115Y372908D01*
X828156Y369949D01*
X823972Y369949D01*
G37*
%LPD*%
%LPC*%
G36*
X1115508Y592357D02*
X1115508Y592357D01*
X1112549Y595316D01*
X1112549Y599500D01*
X1115508Y602459D01*
X1119692Y602459D01*
X1122651Y599500D01*
X1122651Y595316D01*
X1119692Y592357D01*
X1115508Y592357D01*
G37*
%LPD*%
%LPC*%
G36*
X1201908Y564949D02*
X1201908Y564949D01*
X1198949Y567908D01*
X1198949Y572092D01*
X1201908Y575051D01*
X1206092Y575051D01*
X1209051Y572092D01*
X1209051Y567908D01*
X1206092Y564949D01*
X1201908Y564949D01*
G37*
%LPD*%
%LPC*%
G36*
X1148528Y537239D02*
X1148528Y537239D01*
X1145569Y540198D01*
X1145569Y544382D01*
X1148528Y547341D01*
X1152712Y547341D01*
X1155671Y544382D01*
X1155671Y540198D01*
X1152712Y537239D01*
X1148528Y537239D01*
G37*
%LPD*%
%LPC*%
G36*
X429908Y352949D02*
X429908Y352949D01*
X426949Y355908D01*
X426949Y360092D01*
X429908Y363051D01*
X434092Y363051D01*
X437051Y360092D01*
X437051Y355908D01*
X434092Y352949D01*
X429908Y352949D01*
G37*
%LPD*%
%LPC*%
G36*
X1131908Y351949D02*
X1131908Y351949D01*
X1128949Y354908D01*
X1128949Y359092D01*
X1131908Y362051D01*
X1136092Y362051D01*
X1139051Y359092D01*
X1139051Y354908D01*
X1136092Y351949D01*
X1131908Y351949D01*
G37*
%LPD*%
%LPC*%
G36*
X397908Y349949D02*
X397908Y349949D01*
X394949Y352908D01*
X394949Y357092D01*
X397908Y360051D01*
X402092Y360051D01*
X405051Y357092D01*
X405051Y352908D01*
X402092Y349949D01*
X397908Y349949D01*
G37*
%LPD*%
%LPC*%
G36*
X601908Y346949D02*
X601908Y346949D01*
X598949Y349908D01*
X598949Y354092D01*
X601908Y357051D01*
X606092Y357051D01*
X609051Y354092D01*
X609051Y349908D01*
X606092Y346949D01*
X601908Y346949D01*
G37*
%LPD*%
%LPC*%
G36*
X1131177Y339464D02*
X1131177Y339464D01*
X1128219Y342423D01*
X1128219Y346607D01*
X1131177Y349565D01*
X1135361Y349565D01*
X1138320Y346607D01*
X1138320Y342423D01*
X1135361Y339464D01*
X1131177Y339464D01*
G37*
%LPD*%
%LPC*%
G36*
X357908Y320949D02*
X357908Y320949D01*
X354949Y323908D01*
X354949Y328092D01*
X357908Y331051D01*
X362092Y331051D01*
X365051Y328092D01*
X365051Y323908D01*
X362092Y320949D01*
X357908Y320949D01*
G37*
%LPD*%
%LPC*%
G36*
X437908Y316015D02*
X437908Y316015D01*
X434949Y318974D01*
X434949Y323158D01*
X437908Y326117D01*
X442092Y326117D01*
X445051Y323158D01*
X445051Y318974D01*
X442092Y316015D01*
X437908Y316015D01*
G37*
%LPD*%
%LPC*%
G36*
X405908Y309949D02*
X405908Y309949D01*
X402949Y312908D01*
X402949Y317092D01*
X405908Y320051D01*
X410092Y320051D01*
X413051Y317092D01*
X413051Y312908D01*
X410092Y309949D01*
X405908Y309949D01*
G37*
%LPD*%
%LPC*%
G36*
X447908Y303015D02*
X447908Y303015D01*
X444949Y305974D01*
X444949Y310158D01*
X447908Y313117D01*
X452092Y313117D01*
X455051Y310158D01*
X455051Y305974D01*
X452092Y303015D01*
X447908Y303015D01*
G37*
%LPD*%
%LPC*%
G36*
X1149648Y298949D02*
X1149648Y298949D01*
X1146689Y301908D01*
X1146689Y306092D01*
X1149648Y309051D01*
X1153832Y309051D01*
X1156791Y306092D01*
X1156791Y301908D01*
X1153832Y298949D01*
X1149648Y298949D01*
G37*
%LPD*%
%LPC*%
G36*
X383908Y536949D02*
X383908Y536949D01*
X380949Y539908D01*
X380949Y544092D01*
X383908Y547051D01*
X388092Y547051D01*
X391051Y544092D01*
X391051Y539908D01*
X388092Y536949D01*
X383908Y536949D01*
G37*
%LPD*%
%LPC*%
G36*
X626908Y284949D02*
X626908Y284949D01*
X623949Y287908D01*
X623949Y292092D01*
X626908Y295051D01*
X631092Y295051D01*
X634051Y292092D01*
X634051Y287908D01*
X631092Y284949D01*
X626908Y284949D01*
G37*
%LPD*%
%LPC*%
G36*
X547908Y282949D02*
X547908Y282949D01*
X544949Y285908D01*
X544949Y290092D01*
X547908Y293051D01*
X552092Y293051D01*
X555051Y290092D01*
X555051Y285908D01*
X552092Y282949D01*
X547908Y282949D01*
G37*
%LPD*%
%LPC*%
G36*
X649908Y281949D02*
X649908Y281949D01*
X646949Y284908D01*
X646949Y289092D01*
X649908Y292051D01*
X654092Y292051D01*
X657051Y289092D01*
X657051Y284908D01*
X654092Y281949D01*
X649908Y281949D01*
G37*
%LPD*%
%LPC*%
G36*
X590908Y265949D02*
X590908Y265949D01*
X587949Y268908D01*
X587949Y273092D01*
X590908Y276051D01*
X595092Y276051D01*
X598051Y273092D01*
X598051Y268908D01*
X595092Y265949D01*
X590908Y265949D01*
G37*
%LPD*%
%LPC*%
G36*
X318908Y261949D02*
X318908Y261949D01*
X315949Y264908D01*
X315949Y269092D01*
X318908Y272051D01*
X323092Y272051D01*
X326051Y269092D01*
X326051Y264908D01*
X323092Y261949D01*
X318908Y261949D01*
G37*
%LPD*%
%LPC*%
G36*
X475908Y251077D02*
X475908Y251077D01*
X472949Y254036D01*
X472949Y258220D01*
X475908Y261179D01*
X480092Y261179D01*
X483051Y258220D01*
X483051Y254036D01*
X480092Y251077D01*
X475908Y251077D01*
G37*
%LPD*%
%LPC*%
G36*
X292908Y250949D02*
X292908Y250949D01*
X289949Y253908D01*
X289949Y258092D01*
X292908Y261051D01*
X297092Y261051D01*
X300051Y258092D01*
X300051Y253908D01*
X297092Y250949D01*
X292908Y250949D01*
G37*
%LPD*%
%LPC*%
G36*
X255908Y242949D02*
X255908Y242949D01*
X252949Y245908D01*
X252949Y250092D01*
X255908Y253051D01*
X260092Y253051D01*
X263051Y250092D01*
X263051Y245908D01*
X260092Y242949D01*
X255908Y242949D01*
G37*
%LPD*%
%LPC*%
G36*
X255908Y536949D02*
X255908Y536949D01*
X252949Y539908D01*
X252949Y544092D01*
X255908Y547051D01*
X260092Y547051D01*
X263051Y544092D01*
X263051Y539908D01*
X260092Y536949D01*
X255908Y536949D01*
G37*
%LPD*%
%LPC*%
G36*
X626908Y534949D02*
X626908Y534949D01*
X623949Y537908D01*
X623949Y542092D01*
X626908Y545051D01*
X631092Y545051D01*
X634051Y542092D01*
X634051Y537908D01*
X631092Y534949D01*
X626908Y534949D01*
G37*
%LPD*%
%LPC*%
G36*
X437908Y232949D02*
X437908Y232949D01*
X434949Y235908D01*
X434949Y240092D01*
X437908Y243051D01*
X442092Y243051D01*
X445051Y240092D01*
X445051Y235908D01*
X442092Y232949D01*
X437908Y232949D01*
G37*
%LPD*%
%LPC*%
G36*
X283060Y229949D02*
X283060Y229949D01*
X280101Y232908D01*
X280101Y237092D01*
X283060Y240051D01*
X287244Y240051D01*
X290203Y237092D01*
X290203Y232908D01*
X287244Y229949D01*
X283060Y229949D01*
G37*
%LPD*%
%LPC*%
G36*
X511908Y534949D02*
X511908Y534949D01*
X508949Y537908D01*
X508949Y542092D01*
X511908Y545051D01*
X516092Y545051D01*
X519051Y542092D01*
X519051Y537908D01*
X516092Y534949D01*
X511908Y534949D01*
G37*
%LPD*%
%LPC*%
G36*
X601908Y206949D02*
X601908Y206949D01*
X598949Y209908D01*
X598949Y214092D01*
X601908Y217051D01*
X606092Y217051D01*
X609051Y214092D01*
X609051Y209908D01*
X606092Y206949D01*
X601908Y206949D01*
G37*
%LPD*%
%LPC*%
G36*
X429908Y194949D02*
X429908Y194949D01*
X426949Y197908D01*
X426949Y202092D01*
X429908Y205051D01*
X434092Y205051D01*
X437051Y202092D01*
X437051Y197908D01*
X434092Y194949D01*
X429908Y194949D01*
G37*
%LPD*%
%LPC*%
G36*
X884908Y182949D02*
X884908Y182949D01*
X881949Y185908D01*
X881949Y190092D01*
X884908Y193051D01*
X889092Y193051D01*
X892051Y190092D01*
X892051Y185908D01*
X889092Y182949D01*
X884908Y182949D01*
G37*
%LPD*%
%LPC*%
G36*
X512908Y298949D02*
X512908Y298949D01*
X509949Y301908D01*
X509949Y306092D01*
X512908Y309051D01*
X517092Y309051D01*
X520051Y306092D01*
X520051Y301908D01*
X517092Y298949D01*
X512908Y298949D01*
G37*
%LPD*%
%LPC*%
G36*
X985460Y157509D02*
X985460Y157509D01*
X982501Y160468D01*
X982501Y164652D01*
X985460Y167611D01*
X989644Y167611D01*
X992603Y164652D01*
X992603Y160468D01*
X989644Y157509D01*
X985460Y157509D01*
G37*
%LPD*%
%LPC*%
G36*
X910530Y157509D02*
X910530Y157509D01*
X907571Y160468D01*
X907571Y164652D01*
X910530Y167611D01*
X914714Y167611D01*
X917673Y164652D01*
X917673Y160468D01*
X914714Y157509D01*
X910530Y157509D01*
G37*
%LPD*%
%LPC*%
G36*
X1068772Y155477D02*
X1068772Y155477D01*
X1065813Y158436D01*
X1065813Y162620D01*
X1068772Y165579D01*
X1072956Y165579D01*
X1075915Y162620D01*
X1075915Y158436D01*
X1072956Y155477D01*
X1068772Y155477D01*
G37*
%LPD*%
%LPC*%
G36*
X463908Y154949D02*
X463908Y154949D01*
X460949Y157908D01*
X460949Y162092D01*
X463908Y165051D01*
X468092Y165051D01*
X471051Y162092D01*
X471051Y157908D01*
X468092Y154949D01*
X463908Y154949D01*
G37*
%LPD*%
%LPC*%
G36*
X155908Y533949D02*
X155908Y533949D01*
X152949Y536908D01*
X152949Y541092D01*
X155908Y544051D01*
X160092Y544051D01*
X163051Y541092D01*
X163051Y536908D01*
X160092Y533949D01*
X155908Y533949D01*
G37*
%LPD*%
%LPC*%
G36*
X359974Y532949D02*
X359974Y532949D01*
X357015Y535908D01*
X357015Y540092D01*
X359974Y543051D01*
X364158Y543051D01*
X367117Y540092D01*
X367117Y535908D01*
X364158Y532949D01*
X359974Y532949D01*
G37*
%LPD*%
%LPC*%
G36*
X485974Y531949D02*
X485974Y531949D01*
X483015Y534908D01*
X483015Y539092D01*
X485974Y542051D01*
X490158Y542051D01*
X493117Y539092D01*
X493117Y534908D01*
X490158Y531949D01*
X485974Y531949D01*
G37*
%LPD*%
%LPC*%
G36*
X608908Y531949D02*
X608908Y531949D01*
X605949Y534908D01*
X605949Y539092D01*
X608908Y542051D01*
X613092Y542051D01*
X616051Y539092D01*
X616051Y534908D01*
X613092Y531949D01*
X608908Y531949D01*
G37*
%LPD*%
%LPC*%
G36*
X729974Y531949D02*
X729974Y531949D01*
X727015Y534908D01*
X727015Y539092D01*
X729974Y542051D01*
X734158Y542051D01*
X737117Y539092D01*
X737117Y534908D01*
X734158Y531949D01*
X729974Y531949D01*
G37*
%LPD*%
%LPC*%
G36*
X229908Y530949D02*
X229908Y530949D01*
X226949Y533908D01*
X226949Y538092D01*
X229908Y541051D01*
X234092Y541051D01*
X237051Y538092D01*
X237051Y533908D01*
X234092Y530949D01*
X229908Y530949D01*
G37*
%LPD*%
%LPC*%
G36*
X893916Y108525D02*
X893916Y108525D01*
X890957Y111484D01*
X890957Y115668D01*
X893916Y118627D01*
X898100Y118627D01*
X901059Y115668D01*
X901059Y111484D01*
X898100Y108525D01*
X893916Y108525D01*
G37*
%LPD*%
%LPC*%
G36*
X367232Y58777D02*
X367232Y58777D01*
X364273Y61736D01*
X364273Y65920D01*
X367232Y68879D01*
X371416Y68879D01*
X374375Y65920D01*
X374375Y61736D01*
X371416Y58777D01*
X367232Y58777D01*
G37*
%LPD*%
%LPC*%
G36*
X104908Y516949D02*
X104908Y516949D01*
X101949Y519908D01*
X101949Y524092D01*
X104908Y527051D01*
X109092Y527051D01*
X112051Y524092D01*
X112051Y519908D01*
X109092Y516949D01*
X104908Y516949D01*
G37*
%LPD*%
%LPC*%
G36*
X279060Y160949D02*
X279060Y160949D01*
X276101Y163908D01*
X276101Y168092D01*
X279060Y171051D01*
X283244Y171051D01*
X286203Y168092D01*
X286203Y163908D01*
X283244Y160949D01*
X279060Y160949D01*
G37*
%LPD*%
%LPC*%
G36*
X667031Y117511D02*
X667031Y117511D01*
X667031Y124899D01*
X667253Y124864D01*
X668693Y124396D01*
X670042Y123708D01*
X671268Y122818D01*
X672338Y121748D01*
X673228Y120522D01*
X673916Y119173D01*
X674384Y117733D01*
X674419Y117511D01*
X667031Y117511D01*
G37*
%LPD*%
%LPC*%
G36*
X667031Y113449D02*
X667031Y113449D01*
X674419Y113449D01*
X674384Y113227D01*
X673916Y111787D01*
X673228Y110438D01*
X672338Y109212D01*
X671268Y108142D01*
X670042Y107252D01*
X668693Y106564D01*
X667253Y106096D01*
X667031Y106061D01*
X667031Y113449D01*
G37*
%LPD*%
%LPC*%
G36*
X146471Y108731D02*
X146471Y108731D01*
X146471Y110369D01*
X151661Y115559D01*
X153299Y115559D01*
X153299Y108731D01*
X146471Y108731D01*
G37*
%LPD*%
%LPC*%
G36*
X958087Y563371D02*
X958087Y563371D01*
X958087Y569437D01*
X959410Y569437D01*
X964153Y564694D01*
X964153Y563371D01*
X958087Y563371D01*
G37*
%LPD*%
%LPC*%
G36*
X947959Y563371D02*
X947959Y563371D01*
X947959Y564694D01*
X952702Y569437D01*
X954025Y569437D01*
X954025Y563371D01*
X947959Y563371D01*
G37*
%LPD*%
%LPC*%
G36*
X958087Y553243D02*
X958087Y553243D01*
X958087Y559309D01*
X964153Y559309D01*
X964153Y557986D01*
X959410Y553243D01*
X958087Y553243D01*
G37*
%LPD*%
%LPC*%
G36*
X952702Y553243D02*
X952702Y553243D01*
X947959Y557986D01*
X947959Y559309D01*
X954025Y559309D01*
X954025Y553243D01*
X952702Y553243D01*
G37*
%LPD*%
%LPC*%
G36*
X1063719Y369079D02*
X1063719Y369079D01*
X1063719Y369081D01*
X1063721Y369081D01*
X1063721Y369079D01*
X1063719Y369079D01*
G37*
%LPD*%
%LPC*%
G36*
X956055Y561339D02*
X956055Y561339D01*
X956055Y561341D01*
X956057Y561341D01*
X956057Y561339D01*
X956055Y561339D01*
G37*
%LPD*%
%LPC*%
G36*
X189679Y434079D02*
X189679Y434079D01*
X189679Y434081D01*
X189681Y434081D01*
X189681Y434079D01*
X189679Y434079D01*
G37*
%LPD*%
D10*
X1066600Y87630D03*
X1066600Y138430D03*
X1066600Y62230D03*
X1066600Y113030D03*
X1013300Y87630D03*
X1013300Y138430D03*
X1013300Y62230D03*
X1013300Y113030D03*
X960000Y87630D03*
X960000Y138430D03*
X960000Y62230D03*
X960000Y113030D03*
D11*
X1166300Y787480D03*
X1093300Y787480D03*
X1093300Y734480D03*
X1166300Y734480D03*
D10*
X1173200Y87630D03*
X1173200Y138430D03*
X1173200Y62230D03*
X1173200Y113030D03*
X1119900Y87630D03*
X1119900Y138430D03*
X1119900Y62230D03*
X1119900Y113030D03*
D12*
X1063720Y369080D03*
X189680Y434080D03*
D13*
X256930Y106700D03*
X256930Y81300D03*
X231530Y106700D03*
X231530Y81300D03*
X206130Y106700D03*
X206130Y81300D03*
X180730Y106700D03*
X180730Y81300D03*
X155330Y106700D03*
X155330Y81300D03*
D12*
X897260Y556920D03*
X958400Y636080D03*
D14*
X74300Y328400D03*
D15*
X74300Y303000D03*
X74300Y277600D03*
X99700Y328400D03*
X99700Y303000D03*
X99700Y277600D03*
D16*
X654000Y38936D03*
D14*
X639600Y115480D03*
X665000Y115480D03*
D17*
X956056Y561340D03*
D18*
X956056Y535940D03*
D19*
X766600Y165024D03*
X719610Y165024D03*
X813590Y165024D03*
X741200Y38024D03*
X792000Y38024D03*
D20*
X967792Y723228D03*
X809088Y206660D03*
X852728Y205930D03*
X930008Y190660D03*
X974648Y201930D03*
X1015288Y203200D03*
X1056944Y203200D03*
X1019436Y501780D03*
X1076720Y559928D03*
X1145192Y584040D03*
X1025208Y633696D03*
X1039528Y678016D03*
X1098328Y632016D03*
X1060896Y646620D03*
X1151604Y627696D03*
X1215200Y586976D03*
X1153416Y521272D03*
X1099820Y697484D03*
X1186688Y716788D03*
X1176020Y693420D03*
X1173288Y650812D03*
X1100328Y653796D03*
X1181608Y763444D03*
X1114552Y712216D03*
X1143000Y554736D03*
X837916Y253682D03*
X1155160Y709580D03*
X1072896Y602488D03*
X892050Y18160D03*
X948250Y18160D03*
X1065370Y18160D03*
X984190Y75720D03*
X1083310Y45720D03*
X1159510Y45720D03*
X1213930Y18860D03*
X1215930Y80010D03*
X1215930Y197390D03*
X1215930Y133350D03*
X982980Y290830D03*
X953580Y278670D03*
X915924Y272542D03*
X1038860Y296926D03*
X1089660Y257810D03*
X1081960Y293530D03*
X1121140Y314690D03*
X1155684Y417664D03*
X1154688Y481968D03*
X1215930Y269240D03*
X1215930Y326390D03*
X1213930Y447770D03*
X1213930Y516890D03*
X1215930Y379730D03*
X1211930Y698150D03*
X1211930Y777270D03*
X1213930Y632110D03*
X1169700Y314040D03*
X892556Y203112D03*
X1186148Y581088D03*
X873760Y266700D03*
X615000Y516000D03*
X274000Y546000D03*
X530000Y548000D03*
X650000Y548000D03*
X780000Y548000D03*
X401050Y547050D03*
X40000Y538000D03*
X812000Y576000D03*
X454000Y290000D03*
X340000Y380000D03*
X498952Y38000D03*
X310000Y148000D03*
X388000Y192000D03*
X382000Y226000D03*
X300000Y238000D03*
X304000Y198000D03*
X338000Y216000D03*
X144000Y548000D03*
X429620Y149048D03*
X638000Y342000D03*
X400000Y428000D03*
X274000Y454000D03*
X616000Y444000D03*
X340000Y282000D03*
X362000Y288000D03*
X526000Y288000D03*
X469000Y453000D03*
X471000Y514000D03*
X394000Y516000D03*
X378000Y134128D03*
X406000Y126128D03*
X405616Y108128D03*
X488128Y106668D03*
X452000Y124128D03*
X348000Y102128D03*
X312000Y74000D03*
X620952Y18000D03*
X799000Y297000D03*
X780000Y288000D03*
X581000Y293000D03*
X614000Y271000D03*
X719000Y271000D03*
X490000Y382000D03*
X532000Y382000D03*
X612000Y382000D03*
X690000Y382000D03*
X818524Y390000D03*
X320000Y324000D03*
X918000Y580000D03*
X848000Y570000D03*
X968224Y581556D03*
X1024000Y580000D03*
X739000Y294000D03*
X590000Y548000D03*
X708000Y548000D03*
X842000Y636000D03*
X838000Y654000D03*
X852000Y786000D03*
X838000Y730000D03*
X918000Y784000D03*
X980000Y784000D03*
X1068000Y784000D03*
X948000Y750000D03*
X1048000Y748000D03*
X682000Y292000D03*
X668000Y212000D03*
X776000Y212000D03*
X502000Y156000D03*
X550000Y176000D03*
X610000Y176000D03*
X668000Y176000D03*
X744000Y106000D03*
X390256Y153016D03*
X784000Y76000D03*
X845904Y131840D03*
X546896Y505680D03*
X881296Y448784D03*
X370000Y18000D03*
X312000Y18000D03*
X250000Y18000D03*
X190000Y18000D03*
X130000Y18000D03*
X70000Y18000D03*
X38000Y24000D03*
X32000Y76000D03*
X32000Y140000D03*
X32000Y200000D03*
X32000Y260000D03*
X32000Y320000D03*
X32000Y380000D03*
X32000Y440000D03*
X34000Y500000D03*
X98000Y50000D03*
X98000Y114000D03*
X98000Y174000D03*
X160000Y138000D03*
X160000Y198000D03*
X160000Y258000D03*
X224000Y164000D03*
X224000Y224000D03*
X224000Y284000D03*
X104000Y442000D03*
X90000Y364000D03*
X164000Y352000D03*
X164000Y412000D03*
X164000Y472000D03*
X914000Y130000D03*
X642356Y62348D03*
X498000Y82000D03*
X405008Y81652D03*
X926000Y76000D03*
X856000Y76000D03*
X1000000Y18000D03*
X1146000Y18000D03*
X1036000Y76000D03*
X1092000Y74000D03*
X1146000Y76000D03*
X1098000Y204000D03*
X1178000Y202000D03*
X1138000Y206000D03*
X512000Y402000D03*
X576000Y402000D03*
X546000Y468000D03*
X544000Y430000D03*
X692000Y398000D03*
X712000Y456000D03*
X820000Y342000D03*
X866000Y344000D03*
X930000Y344000D03*
X950000Y344000D03*
X1012000Y344000D03*
X1084000Y344000D03*
X1148000Y342000D03*
X990000Y466000D03*
X975428Y509700D03*
X920348Y541620D03*
X1108000Y378000D03*
X1103000Y494000D03*
X1108000Y522000D03*
X1009000Y382000D03*
X434000Y272000D03*
X399936Y258540D03*
X401680Y200384D03*
X456508Y238476D03*
X460000Y140128D03*
X574832Y204000D03*
X426540Y238000D03*
X492144Y227872D03*
X364000Y346000D03*
X324000Y444000D03*
X260000Y514000D03*
X152000Y514000D03*
X947000Y519000D03*
X947000Y461000D03*
X987000Y555000D03*
X528156Y219688D03*
X532000Y154000D03*
X786000Y412000D03*
X762000Y470000D03*
X764000Y440000D03*
X805000Y468000D03*
X803460Y440540D03*
X764000Y498000D03*
X804000Y498000D03*
X854524Y372000D03*
X848000Y468000D03*
X848000Y546000D03*
X894000Y510000D03*
X456000Y375000D03*
X823998Y639934D03*
X826064Y375000D03*
X781000Y619000D03*
X731000Y662000D03*
X719000Y630000D03*
X773000Y690000D03*
X739000Y728000D03*
X725000Y780000D03*
X779000Y780000D03*
X713000Y712000D03*
X778000Y728000D03*
X1120000Y353000D03*
X400000Y355000D03*
X1133269Y344515D03*
X408000Y315000D03*
X1133856Y642112D03*
X1048768Y516000D03*
X1145420Y713660D03*
D21*
X1133856Y702096D01*
X1133856Y642112D01*
X1082112Y642112D01*
X1064746Y624746D02*
X1064948Y531987D01*
X1064746Y624746D02*
X1082112Y642112D01*
X1064948Y531987D02*
X1048961Y516000D01*
D22*
X1048768Y516000D01*
D20*
X1134000Y357000D03*
X440000Y321066D03*
X1029764Y703448D03*
X966760Y598220D03*
D23*
X281152Y52116D02*
X280968Y52300D01*
D21*
X165330Y52300D01*
X155330Y62300D01*
X155330Y81300D01*
D20*
X308000Y480000D03*
D21*
X838000Y480000D02*
X838000Y583006D01*
D20*
X285000Y481000D03*
X285152Y235000D03*
X281152Y52116D03*
X281152Y166000D03*
X438000Y172000D03*
X838000Y583006D03*
X838000Y480000D03*
X782000Y480000D03*
X772000Y480000D03*
X987552Y162560D03*
X896008Y113576D03*
X912622Y162560D03*
X1117000Y364000D03*
X432000Y358000D03*
X544000Y388000D03*
X304000Y388000D03*
X321000Y267000D03*
X331000Y388320D03*
X100000Y388000D03*
D23*
X100000Y328700D01*
X99700Y328400D01*
D20*
X466000Y160000D03*
X466000Y388320D03*
X550000Y288000D03*
X428000Y388320D03*
X1070864Y160528D03*
X274000Y466000D03*
X494000Y468000D03*
X412000Y466000D03*
X515000Y304000D03*
X1151740Y304000D03*
X272000Y431000D03*
X271000Y81000D03*
X369324Y63828D03*
D22*
X960000Y138430D02*
X963930Y138430D01*
X975360Y127000D01*
X975360Y102870D01*
X1013300Y138430D02*
X1017270Y138430D01*
X1028700Y127000D01*
X1028700Y100330D01*
X1066600Y138430D02*
X1070610Y138430D01*
X1082040Y127000D01*
X1082040Y102870D01*
X1127520Y87630D02*
X1137920Y98030D01*
X1127520Y87630D02*
X1119900Y87630D01*
X1137920Y98030D02*
X1137920Y132080D01*
X1131570Y138430D01*
X1119900Y138430D01*
X1082040Y102870D02*
X1066800Y87630D01*
X1066600Y87630D01*
X975360Y102870D02*
X960120Y87630D01*
X960000Y87630D01*
D24*
X1173200Y87630D02*
X1182370Y87630D01*
X1191260Y96520D01*
X1191260Y127000D01*
X1179830Y138430D02*
X1173200Y138430D01*
X1179830Y138430D02*
X1191260Y127000D01*
D20*
X107000Y522000D03*
D23*
X940000Y570000D02*
X940000Y158430D01*
X960000Y138430D01*
D20*
X1204000Y570000D03*
X940000Y570000D03*
X232000Y536000D03*
X362066Y538000D03*
X488066Y537000D03*
X611000Y537000D03*
X732066Y537000D03*
X810000Y528000D03*
D25*
X794000Y528000D01*
X794000Y396000D01*
X784000Y396000D01*
D20*
X792000Y384000D03*
D25*
X784000Y392000D02*
X784000Y396000D01*
X784000Y392000D02*
X792000Y384000D01*
D20*
X348000Y176000D03*
D25*
X348000Y365421D01*
D24*
X348066Y365487D01*
D25*
X348066Y512066D02*
X354000Y518000D01*
X348066Y512066D02*
X348066Y365487D01*
D20*
X354000Y518000D03*
X378000Y516000D03*
X462000Y518000D03*
D22*
X1016000Y87630D02*
X1028700Y100330D01*
D24*
X1016000Y87630D02*
X1013300Y87630D01*
D20*
X796000Y524000D03*
X824000Y541000D03*
X776000Y386000D03*
X602000Y390000D03*
X784000Y396000D03*
X1183640Y597408D03*
X1117600Y597408D03*
X1150620Y542290D03*
X450360Y422280D03*
X450000Y308066D03*
X379000Y421000D03*
D24*
X379000Y327000D01*
X404000Y302000D01*
D20*
X404000Y302000D03*
X655000Y619000D03*
X603000Y788000D03*
X647000Y784000D03*
X585000Y732000D03*
X619000Y712000D03*
X645000Y692000D03*
X603000Y658000D03*
X593000Y628000D03*
X652000Y732000D03*
X530000Y619000D03*
X469000Y628000D03*
X481000Y658000D03*
X523000Y688000D03*
X493000Y714000D03*
X461000Y728000D03*
X523000Y782000D03*
X477000Y788000D03*
X526000Y728000D03*
X405000Y620000D03*
X351000Y786000D03*
X401000Y786000D03*
X343000Y728000D03*
X367000Y714000D03*
X397000Y686000D03*
X355000Y658000D03*
X345000Y628000D03*
X400000Y728000D03*
X278000Y618000D03*
X227000Y786000D03*
X269000Y784000D03*
X215000Y716000D03*
X241000Y728000D03*
X269000Y690000D03*
X220000Y638000D03*
X230000Y660000D03*
X274000Y730000D03*
X86000Y726000D03*
X155000Y619000D03*
X92000Y628000D03*
X103000Y658000D03*
X145000Y694000D03*
X115000Y722000D03*
X103000Y788000D03*
X147000Y782000D03*
X150000Y728000D03*
X846000Y431000D03*
X966072Y436800D03*
X1024000Y544000D03*
X1015000Y544000D03*
X652000Y417000D03*
X652000Y287000D03*
X359000Y272000D03*
X358000Y308000D03*
X360000Y326000D03*
X758000Y542000D03*
D24*
X731804Y515804D01*
D20*
X732000Y278000D03*
D24*
X731804Y278000D01*
X731804Y515804D01*
D20*
X629000Y540000D03*
X629000Y290000D03*
X514000Y540000D03*
X478000Y256128D03*
X386000Y542000D03*
X368000Y304000D03*
X258000Y542000D03*
X340000Y256000D03*
X295000Y256000D03*
X158000Y539000D03*
X258000Y248000D03*
X334000Y248000D03*
X812000Y507000D03*
D24*
X812000Y229048D01*
X801952Y219000D01*
X801952Y189000D01*
D20*
X424000Y190000D03*
X801952Y189000D03*
X594000Y462000D03*
X593000Y271000D03*
X367000Y265000D03*
X604000Y352000D03*
X604000Y212000D03*
X440000Y238000D03*
X560832Y239776D03*
X416052Y241300D03*
X564896Y247904D03*
X407924Y245364D03*
X406296Y182984D03*
D24*
X406562Y182984D02*
X409983Y186406D01*
X406562Y182984D02*
X406296Y182984D01*
X409983Y186406D02*
X418057Y186406D01*
X420529Y183934D01*
X513118Y183934D01*
X520192Y191008D01*
X520192Y227584D01*
D20*
X520192Y227584D03*
X414528Y178816D03*
D24*
X528320Y178816D01*
X536448Y186944D02*
X536448Y227584D01*
D20*
X536448Y227584D03*
D24*
X536448Y186944D02*
X528320Y178816D01*
D20*
X722000Y430000D03*
X666000Y452000D03*
X761936Y423936D03*
X762000Y414000D03*
X432000Y200000D03*
X887000Y188000D03*
X884000Y379000D03*
M02*
